<?xml version="1.0" encoding="utf-8"?>
<!-- Generator: Adobe Illustrator 27.5.0, SVG Export Plug-In . SVG Version: 6.00 Build 0)  -->
<svg version="1.1" xmlns="http://www.w3.org/2000/svg" xmlns:xlink="http://www.w3.org/1999/xlink" x="0px" y="0px"
	 viewBox="0 0 500 500" style="enable-background:new 0 0 500 500;" xml:space="preserve">
<g id="BACKGROUND">
	<rect x="0" y="0" style="fill:#FFFFF2;" width="500" height="500"/>
</g>
<g id="OBJECTS">
	<g style="opacity:0.2;">
		<path style="fill:#FE882D;" d="M85.002,228.639H0v-28.245c3.974,0.709,8.224,3.003,9.562,9.283c0,0,5.312-14.635,17.51-15.242
			c12.204-0.615,16.793,15.228,16.793,15.228s12.309-8.863,17.541,9.015C61.406,218.676,77.947,213.134,85.002,228.639z"/>
		<path style="fill:#FE882D;" d="M491.471,250.26c-11.836-15.678-26.842-5.785-26.842-5.785c-3.382-15.54-11.452-9.952-11.452-9.952
			s-3.766-18.282-18.983-17.767c-12.211,0.413-17.177,16.497-18.664,22.839c-14.997-10.731-28.238,10.447-28.238,10.447h0.742
			l-0.742,0.218H491.471z"/>
		<path style="fill:#FE882D;" d="M300.542,37.605h83.621c0,0-8.134-5.633-13.626-3.577c0,0-3.877-14.929-14.548-15.592
			c-10.672-0.663-13.034,6.979-13.034,6.979s-3.398-3.748-6.233,0.726c0,0-14.997-13.368-21.542,5.372
			C315.18,31.513,304.035,26.946,300.542,37.605z"/>
		<path style="fill:#FE882D;" d="M132.978,72.149h53.216c0,0-0.945-5.911-10.706-4.194c0,0-1.394-12.374-13.135-12.414
			c-11.741-0.039-13.945,9.722-13.945,9.722s-4.723-3.95-6.928,3.85C141.48,69.114,138.331,65.809,132.978,72.149z"/>
	</g>
	<g style="opacity:0.75;">
		<path style="opacity:0.6;fill:#FE882D;" d="M500,277.409v197.802H0V310.016c88.522-17.349,199.812,51.714,199.812,51.714
			S352.572,265.671,500,277.409z"/>
		<g>
			<path style="fill:#FE882D;" d="M500,418.67V500H0v-77.62c39.5-14.91,83.41-26.44,130.43-33.88c0.01,0,0.02-0.01,0.02-0.01
				c0.14-0.02,0.28-0.04,0.42-0.06c0.01-0.01,0.02-0.01,0.03-0.01c8.37-1.32,16.84-2.5,25.39-3.56
				c-4.77-2.13-10.07-5.93-12.05-12.58c0,0,10.85,1.63,18.77,11.33c0,0-12.26-22.83-4.16-32.15c0,0,10.91,16.27,7.39,32.24
				c27.91-3.08,56.73-4.74,86.21-4.83c0.05-0.01,0.1-0.01,0.15,0c0.82-0.01,1.64-0.01,2.47-0.01c24.42,0,48.38,1.08,71.76,3.15
				c-5.71-8.46-5.47-19.57-5.47-19.57c6.14,2.16,9.79,16.01,9.79,16.01l0.29,1.18c-2-13.24,7.23-26.1,7.23-26.1
				c6.4,7.86-3.85,26.03-4.35,26.9c6.93-7.92,16.08-9.01,16.08-9.01c-1.77,5.32-6.13,9.24-10.15,11.88
				c13.99,1.47,27.75,3.3,41.25,5.47c2.25,0.36,4.49,0.73,6.73,1.11c9.6,1.64,19.06,3.44,28.37,5.41c0.08,0.02,0.17,0.04,0.26,0.06
				C446.13,401.55,473.96,409.39,500,418.67z"/>
			<path style="opacity:0.3;fill:#606060;" d="M500,418.67V500H0v-77.62c39.5-14.91,83.41-26.44,130.43-33.88
				c0.01,0,0.02-0.01,0.02-0.01c0.14-0.02,0.28-0.04,0.42-0.06c0.01-0.01,0.02-0.01,0.03-0.01c8.37-1.32,16.84-2.5,25.39-3.56
				c-4.77-2.13-10.07-5.93-12.05-12.58c0,0,10.85,1.63,18.77,11.33c0,0-12.26-22.83-4.16-32.15c0,0,10.91,16.27,7.39,32.24
				c27.91-3.08,56.73-4.74,86.21-4.83c0.05-0.01,0.1-0.01,0.15,0c0.82-0.01,1.64-0.01,2.47-0.01c24.42,0,48.38,1.08,71.76,3.15
				c-5.71-8.46-5.47-19.57-5.47-19.57c6.14,2.16,9.79,16.01,9.79,16.01l0.29,1.18c-2-13.24,7.23-26.1,7.23-26.1
				c6.4,7.86-3.85,26.03-4.35,26.9c6.93-7.92,16.08-9.01,16.08-9.01c-1.77,5.32-6.13,9.24-10.15,11.88
				c16.32,1.72,32.33,3.92,47.98,6.58c9.6,1.64,19.06,3.44,28.37,5.41c0.08,0.02,0.17,0.04,0.26,0.06
				C446.13,401.55,473.96,409.39,500,418.67z"/>
			<path style="opacity:0.4;fill:#885929;" d="M500,476.57V500H0v-21.12c64.71-39.86,129.74-64.08,195.12-72.77
				c17.22-2.29,34.47-3.5,51.74-3.62c1.51-0.02,3.02-0.02,4.54-0.01c16.92,0.05,33.85,1.14,50.81,3.26
				C367.81,413.94,433.74,437.58,500,476.57z"/>
			<path style="opacity:0.4;fill:#885929;" d="M331.192,475.915c0,0,11.752-1.961,14.016-11.274c0,0-7.497,1.504-12.671,8.525
				c0,0,7.724-16.314,1.75-22.533C334.287,450.634,326.121,464.249,331.192,475.915z"/>
			<path style="opacity:0.4;fill:#885929;" d="M162.281,470.915c0,0-12.061-12.913-8.396-20.378c0,0,9.616,8.485,10.488,19.224
				l0.006-0.976c0,0,0.313-11.51,4.738-14.279c0,0,3.445,13.348-3.792,21.508c0,0-12.451-1.401-17.348-9.383
				C147.978,466.629,155.376,465.885,162.281,470.915z"/>
		</g>
	</g>
	<g>
		<g>
			<path style="fill:#FE882D;" d="M118.285,93.28c-0.519,1.102-1.102,2.103-1.748,3.005c-0.53,0.746-1.091,1.424-1.684,2.036
				c-8.41,8.769-22.848,5.765-22.848,5.765s6.26,10.695-6.112,11.373c0,0,10.073,29.246-21.672,24.327
				c2.203,4.919-4.597,25.084-20.2,9.126C41.924,162.901,20.221,183.545,0,156.981V0h97.916c0.032,4.44-2.044,10.227-8.008,17.728
				c0.614-0.256,20.782-8.736,16.683,9.882c0,0,11.26-0.89,12.997,9.76c2.362,14.567-20.729,19.453-22.276,19.764
				c1.038-0.078,11.027-0.623,14.278,6.866c0,0,0,0,0,0.011c1.028,2.337,1.388,5.453,0.614,9.615
				C112.205,73.627,125.254,78.435,118.285,93.28z"/>
			<path style="opacity:0.3;fill:#606060;" d="M92.005,104.086c0,0,6.26,10.695-6.112,11.373c0,0,10.073,29.246-21.672,24.327
				c2.203,4.919-4.597,25.084-20.2,9.126C41.924,162.901,20.221,183.545,0,156.981v-78.88c3.008,1.369,6.472,1.925,9.883,0.245
				c9.184-4.529,16.545-14.501,16.545-14.501c-0.669,2.798,4.003,21.593,20.178,11.863c0,0,1.769,16.927,15.539,18.284
				c13.77,1.347,18.706-7.79,18.706-7.79s11.196,15.936,34.001,12.119C106.442,107.091,92.005,104.086,92.005,104.086z"/>
			<path style="opacity:0.3;fill:#606060;" d="M110.564,52.233c0,0-21.814,10.892-28.689,2.387c-7.575-9.371-20.5-6.593-24.449,1.63
				C43,39.25,30.93,39.637,18.187,53.542c0,0-7.679-11.785-18.187-3.082V18.517c6.223,14.051,21.069,7.419,25.306-1.272
				c0,0,6.339,13.15,15.994-2.639c-0.148,0.487-3.368,11.206,8.834,13.79c10.508,2.213,20.125-8.668,20.125-8.668
				c1.827,8.247,8.295,9.469,16.201,8.663C83.75,45.875,97.587,55.203,110.564,52.233z"/>
			<g>
				<path style="fill:#6B3915;" d="M12.361,115.918c-3.887,3.692,29.987,4.762,51.172,0.963c-0.975,0.276-32.603,9.319-41.639,9.141
					C15.73,125.907,6.546,126.406,0,127.735v-17.14c6.493-5.788,13.367-12.414,16.598-17.167
					c7.055-10.381,16.948-62.105,16.948-62.105s0.699,13.377,0,23.187c-0.699,9.676,38.122-20.565,39.171-21.385
					c-0.911,0.874-30.05,28.761-33.525,30.847c-3.527,2.131-10.511,26.144-9.102,29.453C31.35,96.349,16.238,112.226,12.361,115.918
					z"/>
			</g>
		</g>
		<g>
			<path style="fill:#FE882D;" d="M500,0v159.577c-6.65,2.536-14.747,0.175-14.747,0.175c-1.204,17.313-10.533,7.958-10.533,7.958
				c-29.504,34.001-39.688-10.568-39.688-10.568c-23.057,10.568-22.445-10.283-22.445-10.283
				c-39.163,0.735-21.378-28.313-21.378-28.313c-14.815-5.973-5.932-10.109-5.932-10.109c-3.019-3.759-5.126-7.094-6.485-10.035
				c-0.01-0.018-0.019-0.028-0.019-0.028c-9.708-20.971,17.941-22.56,17.941-22.56c9.31-23.865,28.688-9.649,28.688-9.649
				c3.429-8.974,9.451-2.113,9.451-2.113c3.126-9.87,11.47-15.825,22.528-9.429c-0.942-0.671-1.631-1.406-2.136-2.169
				c-2.66-3.997-0.155-8.703-0.155-8.703c-18.329,3.244-14.766-9.07-14.63-9.539c-0.466,0.239-13.863,7.048-23.688,2.086
				c-10-5.054-2.922-15.319-2.922-15.319c-6.155-8.418,2.922-11.331,2.922-11.331C405.383,8.096,399.791,3.612,397.083,0H500z"/>
			<path style="fill:#FE882D;" d="M500,0v159.577c-6.65,2.536-14.747,0.175-14.747,0.175c-1.204,17.313-10.533,7.958-10.533,7.958
				c-29.504,34.001-39.688-10.568-39.688-10.568c-23.057,10.568-22.445-10.283-22.445-10.283
				c-39.163,0.735-21.378-28.313-21.378-28.313c-14.815-5.973-5.932-10.109-5.932-10.109c-3.019-3.759-5.126-7.094-6.485-10.035
				c-0.01-0.018-0.019-0.028-0.019-0.028c-9.708-20.971,17.941-22.56,17.941-22.56c9.31-23.865,28.688-9.649,28.688-9.649
				c3.429-8.974,9.451-2.113,9.451-2.113c3.126-9.87,11.47-15.825,22.528-9.429c-0.942-0.671-1.631-1.406-2.136-2.169
				c-2.66-3.997-0.155-8.703-0.155-8.703c-18.329,3.244-14.766-9.07-14.63-9.539c-0.466,0.239-13.863,7.048-23.688,2.086
				c-10-5.054-2.922-15.319-2.922-15.319c-6.155-8.418,2.922-11.331,2.922-11.331C405.383,8.096,399.791,3.612,397.083,0H500z"/>
			<path style="opacity:0.3;fill:#606060;" d="M500,112.833v46.747c-6.65,2.53-14.75,0.17-14.75,0.17
				c-1.2,17.31-10.53,7.96-10.53,7.96c-29.5,34-39.69-10.57-39.69-10.57c-23.05,10.57-22.44-10.28-22.44-10.28
				c-39.17,0.73-21.38-28.31-21.38-28.31c-3.28-1.32-5.4-2.55-6.7-3.66c20.17-0.79,15.157-11.557,15.157-11.557
				c24.01,13.5,29.482-15.349,28.792-17.323c23.917,26.615,39.042-3.76,39.042-3.76c-0.516,16.061,13.125,7.998,13.125,7.998
				S479,111.375,500,112.833z"/>
			<path style="opacity:0.3;fill:#606060;" d="M500,0v52.233c-4.125-1.108-7.5,3.767-7.5,3.767s-17.99-24.26-35.12-1.38
				c-0.94-0.67-1.63-1.4-2.14-2.17c-2.66-3.99-0.15-8.7-0.15-8.7c-18.33,3.25-14.77-9.07-14.63-9.54c-0.01,0-0.02,0.01-0.05,0.03
				c-0.02,0-0.06,0.02-0.1,0.04c-0.65,0.28-3.18,1.33-6.65,2.52c-0.01,0.01-0.02,0.01-0.02,0.01c-4.83,1.37-11.4,2.25-16.87-0.51
				c-1.64-0.83-2.81-1.79-3.64-2.83c10.358,0.936,19.571-6.142,21.12-21.72c0,0,8.5,10.85,17,2.55c0,0,11.45,13.08,21.54-14.3H500z"
				/>
			<g>
				<path style="fill:#6B3915;" d="M500,132.722v17.19c-9.24-9.91-20.86-21.82-24.32-22.9c-6.01-1.88-50.17-5.49-50.17-5.49
					l35.45-0.9c-9.36-5.23-26.49-22.02-27.03-22.55c10.01,6.11,22.3,16.97,35.61,21.81C481.93,124.382,492.48,129.092,500,132.722z
					 M472.095,14.3c0.48,0.53,14.246,16.86,22.564,22.09L440.75,19.5c15.508,9.48,37.166,19.76,59.25,24.34v-9.47
					C489.611,29.01,480.04,19.76,472.095,14.3z"/>
			</g>
		</g>
	</g>
	<g>
		<g>
			<g>
				<g>
					<g>
						<path style="fill:#FCBD15;" d="M68.67,411.052c-0.363-0.085-0.721-0.159-1.088-0.225c-1.768-0.319-7.355-1.581-12.29-5.432
							c-6.089-4.742-11.188-13.426-6.905-29.137c4.488-16.456,13.726-23.325,21.252-26.161c7.457-2.813,15.926-1.218,21.635,4.339
							c0.045,0.043,0.087,0.086,0.132,0.133c5.643,5.564,11.036,15.47,8.609,32.383C95.839,416.139,72.577,411.966,68.67,411.052z"
							/>
						<g style="opacity:0.5;">
							<path style="fill:#885929;" d="M86.108,366.53c0.765,0.184,1.472-0.257,1.58-0.968c0.108-0.712-0.415-1.426-1.168-1.609
								c-0.753-0.183-1.461,0.233-1.581,0.945C84.819,365.609,85.343,366.346,86.108,366.53z"/>
							<path style="fill:#885929;" d="M60.777,368.639c0.03-0.122,0.038-0.242,0.037-0.359c0.03-0.647-0.396-1.201-1.037-1.3
								c-0.733-0.114-1.471,0.4-1.661,1.151c-0.03,0.121-0.039,0.239-0.039,0.355c-0.035,0.642,0.377,1.202,1.021,1.311
								C59.832,369.921,60.589,369.401,60.777,368.639z"/>
							<path style="fill:#885929;" d="M64.94,377.12c-0.333,0.211-0.587,0.55-0.675,0.968c-0.17,0.807,0.333,1.594,1.13,1.76
								c0.413,0.086,0.821-0.017,1.145-0.245c0.335-0.211,0.591-0.551,0.68-0.973c0.171-0.813-0.342-1.6-1.139-1.76
								C65.668,376.788,65.261,376.891,64.94,377.12z"/>
							<path style="fill:#885929;" d="M92.775,376.658c0.724,0.178,1.404-0.303,1.528-1.067c0.124-0.764-0.35-1.529-1.068-1.716
								c-0.718-0.186-1.412,0.282-1.542,1.055C91.562,375.703,92.051,376.48,92.775,376.658z"/>
							<path style="fill:#885929;" d="M74.198,389.205c0.169-0.803-0.355-1.594-1.17-1.763c-0.816-0.169-1.611,0.35-1.775,1.154
								c-0.164,0.804,0.361,1.587,1.172,1.755C73.236,390.518,74.03,390.008,74.198,389.205z"/>
							<path style="fill:#885929;" d="M80.799,356.66c0.111-0.588-0.395-1.167-1.125-1.319c-0.731-0.151-1.425,0.179-1.556,0.763
								c-0.131,0.583,0.368,1.2,1.118,1.355C79.985,357.615,80.688,357.247,80.799,356.66z"/>
							<path style="fill:#885929;" d="M84.691,382.194c0.164-0.808-0.344-1.6-1.139-1.77c-0.795-0.171-1.578,0.349-1.744,1.162
								c-0.166,0.814,0.35,1.609,1.147,1.774C83.753,383.526,84.527,383.003,84.691,382.194z"/>
							<path style="fill:#885929;" d="M71.049,362.018c0.172-0.701-0.313-1.365-1.076-1.496c-0.764-0.131-1.527,0.316-1.711,1.013
								c-0.184,0.696,0.29,1.381,1.066,1.516C70.103,363.188,70.877,362.719,71.049,362.018z"/>
							<path style="fill:#885929;" d="M77.806,371.733c0.159-0.786-0.365-1.552-1.168-1.719c-0.804-0.167-1.588,0.328-1.755,1.113
								c-0.166,0.785,0.355,1.563,1.166,1.731C76.859,373.027,77.647,372.52,77.806,371.733z"/>
							<path style="fill:#885929;" d="M48.458,391.614c0.093-0.721-0.342-1.469-0.956-1.66c-0.198-0.062-0.389-0.053-0.562,0.003
								c0.091,0.914,0.226,1.787,0.398,2.625C47.885,392.664,48.374,392.269,48.458,391.614z"/>
							<path style="fill:#885929;" d="M62.571,353.897c0.006,0.448,0.369,0.828,0.944,0.901c0.708,0.091,1.451-0.316,1.649-0.891
								c0.193-0.56-0.192-1.067-0.855-1.178C63.73,353.09,63.15,353.479,62.571,353.897z"/>
							<path style="fill:#885929;" d="M49.863,376.664c0.627,0.131,1.283-0.378,1.447-1.14c0.164-0.761-0.23-1.473-0.861-1.587
								c-0.631-0.114-1.257,0.4-1.417,1.145C48.872,375.827,49.235,376.533,49.863,376.664z"/>
							<path style="fill:#885929;" d="M53.583,402.071c0.684,0.198,1.293-0.154,1.357-0.805c0.064-0.65-0.449-1.354-1.143-1.553
								c-0.694-0.2-1.298,0.18-1.352,0.832C52.389,401.197,52.898,401.872,53.583,402.071z"/>
							<path style="fill:#885929;" d="M93.623,359.829c-0.046,0.607,0.474,1.276,1.159,1.474c0.666,0.193,1.231-0.135,1.294-0.716
								c-0.275-0.471-0.558-0.926-0.847-1.365c-0.096-0.05-0.196-0.095-0.302-0.125C94.252,358.904,93.669,359.222,93.623,359.829z"
								/>
							<path style="fill:#885929;" d="M97.649,385.011c-0.152,0.764,0.248,1.492,0.875,1.621c0.628,0.13,1.241-0.374,1.39-1.121
								c0.148-0.747-0.221-1.467-0.846-1.614C98.445,383.75,97.801,384.247,97.649,385.011z"/>
							<path style="fill:#885929;" d="M86.637,352.291c-0.038,0.432,0.482,0.941,1.168,1.103c0.685,0.164,1.259-0.089,1.276-0.532
								c0.004-0.113-0.028-0.227-0.089-0.337c-0.345-0.248-0.698-0.482-1.056-0.706c-0.012-0.003-0.023-0.007-0.034-0.01
								C87.238,351.658,86.675,351.858,86.637,352.291z"/>
							<path style="fill:#885929;" d="M73.055,350.322c0.693,0.123,1.372-0.136,1.508-0.547c0.104-0.316-0.13-0.627-0.546-0.812
								c-0.645,0.095-1.287,0.222-1.926,0.378C71.945,349.75,72.369,350.201,73.055,350.322z"/>
							<path style="fill:#885929;" d="M62.784,394.092c-0.775-0.182-1.501,0.283-1.622,1.026c-0.121,0.744,0.399,1.485,1.164,1.669
								c0.765,0.183,1.493-0.262,1.625-1.007C64.083,395.035,63.559,394.274,62.784,394.092z"/>
							<path style="fill:#885929;" d="M68.064,404.487c-0.124,0.64,0.387,1.267,1.136,1.422c0.749,0.155,1.468-0.218,1.608-0.854
								c0.141-0.635-0.363-1.295-1.13-1.453C68.912,403.443,68.187,403.849,68.064,404.487z"/>
							<path style="fill:#885929;" d="M88.324,391.841c-0.182,0.779,0.277,1.509,1.011,1.633c0.735,0.124,1.469-0.397,1.65-1.165
								c0.182-0.768-0.257-1.5-0.992-1.635C89.258,390.538,88.506,391.062,88.324,391.841z"/>
							<path style="fill:#885929;" d="M78.044,398.697c-0.175,0.736,0.316,1.434,1.091,1.569c0.775,0.135,1.547-0.339,1.731-1.069
								c0.184-0.73-0.297-1.445-1.08-1.585C79.001,397.471,78.219,397.961,78.044,398.697z"/>
							<path style="fill:#885929;" d="M56.039,383.759c-0.728-0.169-1.42,0.329-1.558,1.105c-0.137,0.776,0.329,1.545,1.052,1.724
								c0.723,0.179,1.432-0.309,1.574-1.095C57.249,384.707,56.766,383.928,56.039,383.759z"/>
							<path style="fill:#885929;" d="M85.795,406.336c-0.716-0.093-1.466,0.349-1.666,0.972c-0.2,0.623,0.218,1.187,0.925,1.277
								c0.707,0.09,1.442-0.328,1.651-0.949C86.913,407.016,86.511,406.428,85.795,406.336z"/>
							<path style="fill:#885929;" d="M95.377,399.764c-0.64-0.069-1.336,0.445-1.537,1.145c-0.191,0.664,0.136,1.243,0.718,1.351
								c0.481-0.694,0.944-1.434,1.382-2.227C95.798,399.887,95.607,399.789,95.377,399.764z"/>
						</g>
						<path style="opacity:0.3;fill:#FE882D;" d="M63.235,373.716c-0.016,0.024-0.032,0.04-0.048,0.065
							c0.024-0.016,0.048-0.032,0.073-0.04C63.251,373.732,63.243,373.724,63.235,373.716z M100.511,375.989l-0.129,0.097
							c-1.612-2.829-3.402-5.699-5.313-8.553c1.145-0.742,2.249-1.451,3.289-2.112c-0.161-0.451-0.339-0.895-0.524-1.322
							l-0.048,0.032c-0.975,0.629-2.007,1.29-3.079,1.975c-0.137,0.097-0.282,0.186-0.419,0.274
							c-1.927-2.805-3.902-5.466-5.869-7.916c1.354-0.709,2.636-1.346,3.805-1.902c0.218-0.105,0.427-0.21,0.637-0.306l0.089-0.04
							c-0.29-0.331-0.588-0.661-0.879-0.967c-0.032-0.04-0.064-0.073-0.097-0.105c-0.089,0.04-0.177,0.081-0.266,0.129
							c-1.282,0.597-2.693,1.306-4.184,2.088c-0.629-0.766-1.258-1.507-1.878-2.209c-0.306-0.355-0.605-0.693-0.903-1.024
							c-0.758-0.838-1.507-1.628-2.233-2.362c-0.161-0.169-0.323-0.323-0.484-0.484c0.339-0.113,0.669-0.226,0.992-0.322
							c0.58-0.194,1.137-0.355,1.677-0.492l0.419-0.113c-0.371-0.161-0.75-0.306-1.129-0.435c-0.089-0.032-0.186-0.064-0.282-0.105
							h-0.008c-0.153-0.048-0.314-0.097-0.468-0.145c-0.129-0.04-0.25-0.081-0.379-0.113c-0.637,0.194-1.282,0.403-1.943,0.637
							c-0.468-0.435-0.935-0.846-1.387-1.233c-0.032-0.032-0.064-0.065-0.097-0.089c-0.395-0.04-0.782-0.073-1.177-0.097
							c-0.202-0.008-0.395-0.016-0.597-0.024c-0.193-0.008-0.395-0.008-0.589-0.008l0.339,0.266
							c0.661,0.516,1.346,1.096,2.056,1.733c-1.048,0.411-2.136,0.863-3.265,1.371c-0.419,0.193-0.854,0.387-1.29,0.596
							c-0.943,0.435-1.903,0.911-2.886,1.411c-1.112-1.37-2.168-2.62-3.144-3.724c-0.443,0.185-0.887,0.379-1.338,0.589l0.073,0.081
							c0.967,1.088,2.032,2.33,3.144,3.708c-2.725,1.435-5.546,3.063-8.392,4.845h-0.008c-0.04,0.024-0.089,0.057-0.129,0.081
							c-0.435-0.645-0.854-1.274-1.266-1.886c-0.379-0.556-0.742-1.104-1.104-1.629l-0.024-0.048
							c-0.089,0.081-0.186,0.169-0.274,0.25c-0.25,0.234-0.5,0.476-0.75,0.726c0.153,0.234,0.314,0.468,0.476,0.701
							c0.274,0.403,0.548,0.822,0.838,1.241c0.298,0.452,0.613,0.919,0.927,1.387c-1.177,0.75-2.338,1.516-3.474,2.281
							c-0.419,0.29-0.846,0.58-1.258,0.871c-0.895,0.621-1.765,1.242-2.62,1.87c-0.331,0.234-0.645,0.476-0.967,0.709l-0.242-0.419
							c-0.185,0.339-0.363,0.677-0.532,1.024c-0.161,0.314-0.314,0.637-0.468,0.967c-0.121,0.258-0.242,0.516-0.355,0.782
							c-0.145,0.323-0.29,0.653-0.427,0.984l0.476-0.379c0.016-0.008,0.024-0.024,0.04-0.032c0.355-0.282,0.717-0.556,1.08-0.838
							c0.185,0.322,0.371,0.653,0.556,0.975c0.709,1.217,1.443,2.483,2.225,3.789c0.129,0.218,0.266,0.443,0.395,0.669
							c0.339,0.564,0.677,1.129,1.032,1.701c0.185,0.306,0.371,0.613,0.556,0.919c-1.008,0.709-1.991,1.411-2.942,2.096l-0.629,0.46
							c-0.395,0.29-0.79,0.572-1.169,0.854c-1.064,0.782-2.08,1.548-3.047,2.289c-0.468-0.854-0.927-1.725-1.37-2.588l-0.194-0.371
							c-0.024,0.097-0.04,0.194-0.056,0.29c-0.089,0.379-0.161,0.75-0.218,1.121c-0.048,0.266-0.097,0.532-0.137,0.79v0.008
							c0.258,0.467,0.508,0.951,0.774,1.427c0.032,0.057,0.064,0.121,0.097,0.177c-0.403,0.314-0.79,0.621-1.169,0.927
							c-0.008,0.008-0.024,0.016-0.032,0.024c-0.008,0.057-0.008,0.113-0.016,0.169c-0.024,0.266-0.048,0.524-0.064,0.782v0.04
							c-0.024,0.298-0.04,0.596-0.056,0.895l0.008-0.008l0.226-0.185c0.145-0.113,0.29-0.234,0.443-0.355
							c0.435-0.347,0.887-0.701,1.338-1.056c0.161,0.282,0.322,0.564,0.492,0.854c0.129,0.234,0.258,0.468,0.403,0.701
							c0.395,0.685,0.798,1.379,1.217,2.072c0.25,0.419,0.5,0.83,0.758,1.25c0.766,1.258,1.556,2.523,2.378,3.781
							c-0.21,0.137-0.411,0.274-0.613,0.411c-0.427,0.282-0.847,0.564-1.258,0.838c-1.314,0.879-2.556,1.709-3.7,2.491h-0.008
							c0.008,0.024,0.016,0.04,0.032,0.064c0.113,0.29,0.234,0.564,0.355,0.838c0.008,0.008,0.008,0.008,0.008,0.008
							c0.056,0.129,0.121,0.258,0.177,0.379l0.032-0.024c0.508-0.339,1.024-0.693,1.564-1.056c0.008,0,0.016-0.008,0.016-0.008
							c0.887-0.596,1.822-1.217,2.797-1.87c0.419-0.282,0.846-0.564,1.282-0.855c0.024-0.016,0.048-0.032,0.072-0.048
							c0.032,0.048,0.065,0.105,0.105,0.153c0.048,0.073,0.097,0.145,0.137,0.218H55.1c1.846,2.789,3.724,5.466,5.627,7.981
							c-1.999,1.121-3.829,2.112-5.449,2.934l-0.137,0.064c0.048,0.04,0.105,0.081,0.153,0.121h0.008
							c0.048,0.04,0.089,0.073,0.137,0.105c0.218,0.177,0.443,0.339,0.669,0.5c0.089,0.065,0.185,0.137,0.282,0.202
							c0.29-0.153,0.588-0.306,0.895-0.467c1.314-0.685,2.749-1.467,4.297-2.338c0.709,0.919,1.403,1.806,2.096,2.652
							c1.225,1.516,2.418,2.91,3.579,4.192c-0.129,0.056-0.266,0.105-0.395,0.161l-0.435,0.177l-0.008,0.008
							c0.113,0.024,0.218,0.048,0.322,0.065c0.258,0.056,0.476,0.105,0.661,0.137c0.064,0.016,0.129,0.032,0.185,0.04
							c0.185,0.032,0.363,0.064,0.54,0.105c0.177,0.032,0.355,0.073,0.54,0.113c0.064,0.016,0.137,0.032,0.218,0.048
							c0.073,0.016,0.153,0.04,0.242,0.056c0.089,0.016,0.185,0.032,0.282,0.056c0.193,0.04,0.403,0.081,0.637,0.121
							c0.056,0.016,0.113,0.024,0.169,0.032l-0.008-0.008l-0.314-0.33c-0.089-0.097-0.186-0.194-0.282-0.298
							c2.467-1.112,5.135-2.467,7.949-4.031c1.266,1.669,2.443,3.176,3.523,4.498c0.21-0.04,0.411-0.089,0.621-0.145
							c0.29-0.064,0.58-0.137,0.871-0.226l-0.089-0.113c-1.12-1.362-2.37-2.942-3.7-4.7c2.862-1.636,5.788-3.426,8.698-5.345
							c1.282,1.991,2.475,3.853,3.539,5.522l0.032,0.048c0.177-0.153,0.347-0.314,0.516-0.476c0.169-0.161,0.339-0.322,0.508-0.5
							c-1.04-1.636-2.193-3.434-3.434-5.361c2.87-1.927,5.627-3.894,8.207-5.869c0.282,0.54,0.564,1.064,0.838,1.58l0.137,0.266
							c0.218-0.58,0.427-1.185,0.621-1.814c-0.161-0.298-0.322-0.589-0.484-0.895c0.322-0.258,0.645-0.508,0.959-0.766
							c0.089-0.355,0.185-0.709,0.274-1.072c0-0.008,0-0.008,0-0.016c0.081-0.363,0.169-0.734,0.242-1.112l-0.314,0.266
							c-0.621,0.5-1.233,1-1.838,1.467c-1.314-2.362-2.781-4.909-4.394-7.578c-0.145-0.234-0.29-0.468-0.435-0.709
							c0.298-0.21,0.589-0.419,0.887-0.629c2.37-1.693,4.595-3.321,6.618-4.861c0.121,0.218,0.234,0.427,0.355,0.637l0.29,0.548
							C100.616,378.182,100.583,377.07,100.511,375.989z M93.127,367.13c-2.467,1.596-5.143,3.329-7.933,5.151
							c-1.999-2.991-4.015-5.901-5.99-8.65c2.854-1.685,5.53-3.201,7.973-4.514C89.176,361.6,91.176,364.284,93.127,367.13z
							 M59.986,378.408c-0.266-0.427-0.524-0.854-0.79-1.274c-0.089-0.145-0.177-0.29-0.266-0.435
							c0.371-0.258,0.75-0.524,1.129-0.782c1.024-0.709,2.072-1.419,3.128-2.136c0.024-0.016,0.048-0.032,0.073-0.04
							c0.395-0.266,0.79-0.532,1.185-0.798c0.097-0.065,0.201-0.137,0.298-0.194c0,0,0,0,0-0.008
							c1.032-0.685,2.08-1.371,3.128-2.056c1.935,2.926,3.95,5.965,5.958,9.029c-3.088,2.023-6.175,4.063-9.158,6.03
							c-0.46-0.701-0.919-1.411-1.37-2.112C62.17,381.874,61.058,380.133,59.986,378.408z M69.039,369.927
							c3.047-1.967,6.062-3.845,8.973-5.587c1.983,2.765,4.007,5.683,6.014,8.698c-2.934,1.911-5.974,3.902-9.029,5.909
							C72.981,375.893,70.974,372.853,69.039,369.927z M74.593,380.875c2.032,3.088,4.055,6.175,6.006,9.174
							c-3.063,2.015-6.127,3.974-9.118,5.836c-2.007-2.902-4.047-5.917-6.054-8.972C68.418,384.938,71.506,382.906,74.593,380.875z
							 M75.762,380.109c3.055-1.999,6.103-3.999,9.037-5.909c2.015,3.047,3.958,6.086,5.788,9.061
							c-2.83,1.983-5.796,4.007-8.827,6.014C79.809,386.284,77.785,383.196,75.762,380.109z M76.786,353.385
							c0.226-0.105,0.443-0.201,0.661-0.29c0.846-0.379,1.677-0.726,2.467-1.032c0.226-0.097,0.451-0.185,0.669-0.266
							c0.379,0.363,0.758,0.75,1.145,1.145c0.468,0.467,0.935,0.967,1.411,1.483c0.153,0.161,0.306,0.331,0.46,0.5
							c0.879,0.967,1.773,1.999,2.685,3.096c-2.427,1.306-5.079,2.805-7.892,4.474c-1.919-2.652-3.765-5.087-5.482-7.255
							C74.246,354.562,75.544,353.941,76.786,353.385z M71.651,355.892c1.733,2.177,3.595,4.635,5.546,7.32
							c-2.902,1.741-5.901,3.603-8.924,5.554c-1.854-2.789-3.628-5.449-5.272-7.9C65.927,359.036,68.837,357.367,71.651,355.892z
							 M53.754,368.009c-0.113-0.202-0.226-0.403-0.339-0.597c0.838-0.621,1.693-1.249,2.563-1.862
							c0.129-0.089,0.25-0.177,0.379-0.258c1.765-1.258,3.595-2.483,5.466-3.676c0.564,0.838,1.145,1.701,1.741,2.596
							c0,0,0.008,0,0,0.008c1.129,1.677,2.306,3.45,3.539,5.304c-0.822,0.54-1.645,1.072-2.459,1.62c0,0,0,0-0.008,0
							c-0.814,0.54-1.628,1.088-2.435,1.629c-1.354,0.911-2.692,1.83-3.998,2.741c-0.403-0.661-0.798-1.314-1.185-1.959
							c-0.064-0.105-0.129-0.21-0.186-0.314c-0.339-0.548-0.661-1.088-0.975-1.628C55.117,370.371,54.415,369.169,53.754,368.009z
							 M52.65,387.856c-0.258-0.419-0.508-0.839-0.75-1.25c-0.427-0.717-0.838-1.427-1.242-2.128
							c-0.242-0.411-0.476-0.822-0.701-1.233c0.927-0.717,1.894-1.443,2.91-2.193c0.194-0.145,0.395-0.29,0.597-0.435
							c0.387-0.29,0.774-0.572,1.169-0.855c1.024-0.75,2.072-1.499,3.16-2.265c0.177,0.282,0.347,0.564,0.532,0.854
							c0.25,0.411,0.516,0.838,0.782,1.258c1.145,1.846,2.338,3.716,3.563,5.611c0,0,0,0,0.008,0.008
							c0.274,0.427,0.548,0.854,0.83,1.282c-0.79,0.524-1.572,1.04-2.338,1.548c-1.072,0.701-2.112,1.395-3.136,2.072
							c0,0,0,0,0,0.008c-0.605,0.395-1.193,0.79-1.782,1.177c-0.339,0.226-0.677,0.451-1.016,0.677
							C54.343,390.613,53.48,389.226,52.65,387.856z M56.221,393.483c-0.073-0.105-0.145-0.218-0.218-0.323
							c0.75-0.5,1.524-1.016,2.314-1.54h0.008c0.008-0.008,0.016-0.008,0.016-0.016c1.895-1.258,3.886-2.572,5.925-3.926
							c2.007,3.047,4.031,6.054,6.03,8.94c-2.959,1.822-5.764,3.491-8.352,4.974C60.01,399.037,58.091,396.312,56.221,393.483z
							 M68.603,409.662c-1.048-1.137-2.128-2.386-3.241-3.724c-0.838-1.024-1.701-2.104-2.572-3.233
							c2.572-1.467,5.361-3.128,8.303-4.942c1.411,2.023,2.781,3.942,4.095,5.74c0.516,0.709,1.032,1.411,1.532,2.08
							C73.835,407.179,71.11,408.55,68.603,409.662z M77.947,404.89c-0.476-0.637-0.959-1.29-1.443-1.959
							c-1.362-1.846-2.773-3.821-4.232-5.901c2.991-1.862,6.046-3.813,9.085-5.82c1.338,2.064,2.62,4.039,3.829,5.901
							c0.532,0.822,1.048,1.62,1.548,2.394C83.791,401.448,80.833,403.253,77.947,404.89z M96.174,392.806
							c-2.588,1.991-5.369,3.982-8.279,5.933c-0.556-0.863-1.121-1.741-1.709-2.652c-1.169-1.798-2.394-3.692-3.668-5.643
							c3.031-2.007,5.99-4.023,8.795-5.998c0.322,0.524,0.637,1.048,0.943,1.564C93.691,388.404,95.005,390.677,96.174,392.806z
							 M93.949,380.875c-0.726,0.516-1.467,1.048-2.225,1.58c-1.814-2.951-3.757-5.982-5.764-9.013
							c2.797-1.822,5.474-3.563,7.949-5.159c0.395,0.581,0.782,1.169,1.153,1.749c1.507,2.306,2.918,4.619,4.216,6.901
							C97.625,378.19,95.843,379.512,93.949,380.875z"/>
						<path style="opacity:0.3;fill:#FE882D;" d="M68.67,411.052c-0.363-0.085-0.721-0.159-1.088-0.225
							c-1.768-0.319-7.355-1.581-12.29-5.432c14.942,3.041,27.867-4.493,32.75-11.61c12.649-18.437,4.678-36.121,3.365-39.216
							c5.643,5.564,11.036,15.47,8.609,32.383C95.839,416.139,72.577,411.966,68.67,411.052z"/>
					</g>
					<g>
						<path style="fill:#578E43;" d="M75.749,352.156c0.005,0.003,0.01,0.005,0.015,0.005c1.434,0.617,3.028,1.102,4.81,1.427
							c19.035,4.308,20.245-17.681,20.245-17.681c-3.467,6.187-9.852,11.046-10.052,11.198c8.595-11.342,3.535-27.956,3.535-27.956
							c0.118,10.16-6.721,19.941-9.111,23.044c-0.002,0.007-0.006,0.01-0.008,0.013c-0.502,0.648-0.804,1.002-0.804,1.002
							c0.018-0.033,0.036-0.067,0.051-0.103c4.851-15.808-0.251-38.061-0.321-38.285c-0.102,0.187-7.366,18.31-5.764,36.986
							c0.006,0.065,0.037,0.12,0.055,0.181c-0.184-0.352-6.685-12.9-6.503-23.991c0.005-0.414,0.021-0.829,0.048-1.239
							c0.018-0.283,0.042-0.566,0.069-0.847c0.042-0.421,0.096-0.84,0.162-1.253c-0.002,0.003-0.004,0.01-0.008,0.017l0,0.003
							c-0.328,0.65-6.701,13.744-0.568,28.417c0.014,0.043,0.031,0.082,0.05,0.125c0,0-5.649-7.391-8.176-14.907
							C63.473,328.311,61.881,346.21,75.749,352.156z"/>
						<path style="opacity:0.2;fill:#606060;" d="M71.6,343.093c0.007,0.022,0.018,0.043,0.027,0.064
							c0.002,0,0.003,0.003,0.005,0.006c0,0,3.854,9.975,9.179,10.478s9.95-6.533,9.95-6.533c0.002,0,0.002-0.003,0.004-0.004
							c8.595-11.342,3.535-27.956,3.535-27.956c0.118,10.16-6.721,19.941-9.111,23.044c-0.002,0.007-0.006,0.01-0.008,0.013
							c-0.246,0.298-0.753,0.9-0.753,0.9s-2.749,9.317-3.856,10.484c-0.919-1.598-2.229-11.783-2.229-11.783
							s-0.404-0.779-0.595-1.162c-0.003-0.003-0.006-0.009-0.006-0.015c-1.615-3.414-5.715-12.934-5.846-21.772
							c0-0.006,0-0.013,0-0.019c-0.004-0.281-0.004-0.562,0-0.842c0.005-0.414,0.021-0.829,0.048-1.239
							c0.018-0.283,0.04-0.566,0.069-0.847c0.038-0.414,0.09-0.827,0.154-1.234C71.84,315.327,65.467,328.42,71.6,343.093z"/>
					</g>
				</g>
				<g>
					<g>
						<path style="fill:#FCBD15;" d="M61.23,381.11c0.03,0.82,0.03,1.61,0,2.38c0.01,0.16,0,0.33-0.01,0.49
							c-0.01,0.29-0.02,0.58-0.04,0.86c-0.01,0.27-0.03,0.54-0.05,0.8c-0.02,0.21-0.04,0.42-0.06,0.63
							c-0.04,0.46-0.09,0.91-0.15,1.34c-0.04,0.27-0.08,0.53-0.12,0.79c-0.03,0.24-0.07,0.47-0.11,0.71v0.01
							c-0.05,0.33-0.12,0.65-0.18,0.97c-0.02,0.06-0.03,0.12-0.04,0.18c-0.02,0.12-0.05,0.23-0.08,0.34
							c-0.05,0.25-0.1,0.49-0.17,0.72c-0.01,0.06-0.03,0.13-0.05,0.19c-0.06,0.26-0.13,0.52-0.2,0.77c0,0.01,0,0.01-0.01,0.02
							c-0.03,0.13-0.07,0.26-0.11,0.38c-0.13,0.46-0.27,0.89-0.43,1.32c-0.1,0.3-0.2,0.59-0.31,0.87c-0.06,0.14-0.12,0.29-0.18,0.43
							c-0.04,0.11-0.08,0.21-0.13,0.31c-0.05,0.12-0.1,0.24-0.16,0.36c-0.03,0.09-0.07,0.17-0.11,0.26
							c-0.08,0.2-0.17,0.38-0.26,0.57c-0.25,0.54-0.53,1.06-0.81,1.56c-0.14,0.24-0.28,0.48-0.42,0.71
							c-0.08,0.15-0.17,0.29-0.26,0.42c-0.11,0.18-0.21,0.34-0.33,0.51c-0.26,0.41-0.54,0.8-0.83,1.17
							c-0.22,0.3-0.44,0.58-0.67,0.86c-0.53,0.66-1.1,1.28-1.68,1.86c0,0.01-0.01,0.01-0.02,0.02h-0.01
							c-0.09,0.1-0.18,0.19-0.27,0.28c-0.75,0.74-1.53,1.41-2.33,2.03c-0.13,0.1-0.25,0.19-0.38,0.28
							c-0.09,0.08-0.18,0.15-0.28,0.21c-0.17,0.13-0.34,0.25-0.52,0.37c-0.03,0.03-0.07,0.05-0.1,0.07
							c-0.04,0.03-0.07,0.05-0.11,0.08h-0.01c-0.4,0.28-0.8,0.55-1.21,0.8c-0.09,0.06-0.18,0.11-0.27,0.17h-0.01
							c-0.01,0-0.01,0-0.01,0c-0.24,0.14-0.48,0.28-0.71,0.41c-0.21,0.12-0.41,0.23-0.62,0.34c-0.2,0.11-0.4,0.22-0.61,0.32
							c-0.41,0.21-0.81,0.41-1.22,0.59c-0.26,0.13-0.52,0.24-0.79,0.35c0,0-0.01,0.01-0.02,0.01c-0.64,0.28-1.27,0.53-1.89,0.75
							c-0.11,0.04-0.21,0.08-0.31,0.12c-0.18,0.06-0.35,0.12-0.52,0.17c-0.75,0.26-1.48,0.48-2.18,0.67
							c-0.34,0.09-0.68,0.18-1.01,0.26c-0.98,0.24-1.87,0.41-2.63,0.54c-0.05,0.02-0.1,0.02-0.14,0.03
							c-0.05,0.01-0.1,0.02-0.15,0.02c-0.22,0.04-0.43,0.07-0.63,0.1c-0.08,0.01-0.16,0.02-0.24,0.03
							c-0.12,0.02-0.24,0.04-0.34,0.05c-0.04,0-0.08,0.01-0.12,0.01c-0.03,0.01-0.06,0.01-0.09,0.02c-0.14,0.01-0.27,0.03-0.38,0.04
							c-0.12,0.01-0.24,0.02-0.35,0.04c-0.03-0.01-0.06,0-0.09,0.01c-0.08,0-0.16,0.01-0.24,0.02c-0.18,0.02-0.35,0.04-0.52,0.08
							c-0.06,0-0.11,0.01-0.17,0.02c-0.06,0.01-0.12,0.02-0.19,0.03h-0.03c-0.05,0.01-0.12,0.02-0.18,0.03
							c-0.19,0.02-0.4,0.05-0.62,0.08c-0.13,0.01-0.28,0.03-0.43,0.05c-0.23,0.02-0.47,0.04-0.73,0.07
							c-0.2,0.01-0.41,0.03-0.63,0.04c-0.33,0.02-0.68,0.04-1.05,0.05c-0.11,0.01-0.22,0.01-0.33,0.01
							c-0.18,0.01-0.36,0.01-0.54,0.01c-0.84,0.02-1.76,0.01-2.73-0.05c-0.28-0.01-0.56-0.03-0.84-0.06
							c-0.28-0.02-0.58-0.05-0.87-0.08c-1.03-0.1-2.09-0.25-3.19-0.47c-0.39-0.08-0.78-0.16-1.18-0.25
							c-0.26-0.06-0.52-0.12-0.78-0.2c-0.22-0.05-0.44-0.11-0.67-0.18c-0.26-0.07-0.51-0.15-0.77-0.23
							c-0.28-0.08-0.56-0.17-0.84-0.27c-0.07-0.03-0.15-0.05-0.22-0.08c-3.49-1.23-7.03-3.21-10.13-6.34
							c-0.2-0.21-0.41-0.42-0.6-0.64c-0.21-0.21-0.4-0.43-0.6-0.65c-1.32-1.52-2.54-3.29-3.62-5.33v-45.37c0-0.01,0-0.01,0-0.01
							c0.08-0.15,0.15-0.29,0.22-0.43c0.13-0.27,0.27-0.52,0.41-0.76c0.73-1.34,1.51-2.59,2.33-3.74c0.19-0.27,0.37-0.53,0.56-0.78
							c0.1-0.13,0.19-0.26,0.29-0.39c0.24-0.31,0.47-0.61,0.71-0.9h0.01c0.99-1.23,2.02-2.35,3.07-3.35c0.1-0.09,0.2-0.18,0.3-0.28
							c0.16-0.16,0.32-0.3,0.48-0.45c0.09-0.09,0.19-0.17,0.29-0.25c0.08-0.08,0.17-0.16,0.27-0.25c0.26-0.23,0.52-0.45,0.78-0.66
							c0.11-0.09,0.22-0.18,0.33-0.26c0.72-0.59,1.47-1.12,2.24-1.61c0.52-0.33,1.05-0.65,1.59-0.94c0.17-0.1,0.35-0.19,0.52-0.28
							h0.01c1.12-0.59,2.28-1.08,3.47-1.49h0.01c0.29-0.1,0.58-0.2,0.89-0.29c0.29-0.09,0.59-0.18,0.9-0.25
							c0.02-0.01,0.06-0.02,0.09-0.03c0.31-0.09,0.62-0.16,0.92-0.23h0.01c0.04-0.01,0.07-0.02,0.11-0.02
							c1.38-0.31,2.78-0.5,4.18-0.56c0.29-0.02,0.56-0.02,0.84-0.02c0.09-0.01,0.18-0.01,0.27-0.01h0.01c0.27,0,0.54,0,0.81,0.01
							c0.22,0.01,0.46,0.01,0.68,0.03c0.13,0,0.26,0.01,0.39,0.02c1.31,0.09,2.61,0.27,3.89,0.58c0.25,0.06,0.51,0.12,0.76,0.19
							c0.2,0.04,0.39,0.09,0.58,0.15v0.01c0.06,0.01,0.12,0.03,0.18,0.05c1.17,0.34,2.32,0.78,3.45,1.32
							c0.07,0.04,0.14,0.07,0.21,0.11c0.13,0.06,0.26,0.13,0.39,0.19h0.01c0.01,0.01,0.02,0.01,0.04,0.02
							c0.15,0.08,0.3,0.15,0.44,0.23c0.27,0.14,0.53,0.28,0.8,0.42c0.26,0.14,0.53,0.29,0.8,0.44c0.3,0.17,0.6,0.36,0.9,0.55
							c0.28,0.18,0.57,0.36,0.85,0.55c0.24,0.15,0.47,0.31,0.71,0.48c0.47,0.32,0.94,0.67,1.41,1.04c0.29,0.21,0.58,0.44,0.87,0.68
							c0.12,0.11,0.25,0.21,0.37,0.31c0.1,0.08,0.2,0.17,0.31,0.27c0.89,0.76,1.77,1.59,2.64,2.51c0.27,0.28,0.53,0.56,0.79,0.85
							c0.02,0.01,0.03,0.03,0.05,0.05c0.01,0.01,0.03,0.03,0.06,0.06c0.16,0.19,0.34,0.39,0.51,0.59c0.19,0.22,0.38,0.45,0.57,0.68
							c0.5,0.61,0.99,1.25,1.48,1.92c0.23,0.33,0.47,0.66,0.7,1.01c0.24,0.34,0.47,0.7,0.7,1.06c0.17,0.26,0.34,0.53,0.51,0.81
							c0.1,0.16,0.21,0.34,0.3,0.51c0.12,0.2,0.24,0.4,0.35,0.6c0.3,0.51,0.59,1.04,0.86,1.58c0.26,0.5,0.52,1,0.77,1.52
							c0.35,0.75,0.7,1.52,1.03,2.32c0.03,0.07,0.06,0.14,0.09,0.21c0.25,0.61,0.51,1.25,0.75,1.9c0.07,0.16,0.13,0.32,0.19,0.48
							c0.02,0.04,0.03,0.08,0.05,0.13c0.04,0.12,0.08,0.24,0.12,0.37c0.04,0.11,0.08,0.21,0.12,0.32c0.05,0.13,0.1,0.27,0.14,0.4
							c0.03,0.1,0.06,0.19,0.09,0.29c0.12,0.35,0.23,0.7,0.35,1.06c0.03,0.07,0.05,0.13,0.06,0.2c0.09,0.29,0.18,0.58,0.27,0.88
							c0.04,0.12,0.08,0.25,0.11,0.37c0.11,0.36,0.21,0.73,0.31,1.1c0.09,0.33,0.18,0.67,0.26,1.01c0.1,0.36,0.19,0.73,0.27,1.1
							c0.11,0.41,0.2,0.82,0.29,1.24c0,0,0.01,0,0,0.01c0.04,0.19,0.09,0.4,0.14,0.6c0.11,0.52,0.22,1.06,0.32,1.6
							c0.08,0.44,0.16,0.88,0.23,1.31c0.05,0.25,0.09,0.49,0.12,0.74c0.11,0.68,0.2,1.34,0.28,2c0.01,0.01,0.01,0.02,0.01,0.04
							c0.05,0.39,0.09,0.78,0.13,1.16s0.07,0.76,0.1,1.14c0.02,0.15,0.03,0.3,0.04,0.45c0.02,0.27,0.04,0.53,0.05,0.78
							c0.01,0.19,0.02,0.37,0.03,0.55c0,0.07,0.01,0.14,0.01,0.2c0,0.01,0,0.01,0,0.01C61.22,380.71,61.23,380.91,61.23,381.11z"/>
						<g style="opacity:0.5;">
							<path style="fill:#885929;" d="M35.66,353.775c0.972-0.093,1.623-0.894,1.463-1.772c-0.16-0.879-1.061-1.506-2.018-1.418
								c-0.957,0.089-1.62,0.862-1.474,1.746C33.776,353.214,34.688,353.868,35.66,353.775z"/>
							<path style="fill:#885929;" d="M6.791,366.456c-0.014-0.156-0.053-0.299-0.102-0.436c-0.225-0.771-0.948-1.249-1.741-1.108
								c-0.906,0.162-1.565,1.062-1.485,2.019c0.013,0.154,0.05,0.296,0.097,0.432c0.218,0.767,0.926,1.259,1.726,1.127
								C6.199,368.339,6.878,367.424,6.791,366.456z"/>
							<path style="fill:#885929;" d="M15.092,374.728c-0.306,0.381-0.466,0.882-0.402,1.408c0.125,1.015,1.033,1.737,2.034,1.609
								c0.519-0.066,0.957-0.35,1.244-0.749c0.309-0.382,0.472-0.885,0.406-1.415c-0.127-1.022-1.046-1.74-2.045-1.606
								C15.812,374.045,15.377,374.33,15.092,374.728z"/>
							<path style="fill:#885929;" d="M47.563,362.971c0.921-0.083,1.525-0.921,1.362-1.868c-0.162-0.947-1.026-1.653-1.944-1.583
								c-0.917,0.07-1.543,0.9-1.384,1.859C45.755,362.339,46.642,363.054,47.563,362.971z"/>
							<path style="fill:#885929;" d="M30.823,385.176c-0.125-1.01-1.058-1.728-2.083-1.597c-1.025,0.13-1.749,1.059-1.617,2.068
								c0.131,1.009,1.064,1.717,2.082,1.587C30.223,387.104,30.949,386.185,30.823,385.176z"/>
							<path style="fill:#885929;" d="M25.455,344.335c-0.106-0.734-0.934-1.21-1.852-1.094c-0.918,0.117-1.6,0.785-1.518,1.522
								c0.082,0.737,0.915,1.26,1.858,1.14C24.885,345.783,25.561,345.068,25.455,344.335z"/>
							<path style="fill:#885929;" d="M40.309,372.724c-0.134-1.014-1.048-1.738-2.049-1.618c-1.001,0.12-1.711,1.045-1.578,2.066
								c0.133,1.021,1.058,1.746,2.06,1.619C39.744,374.663,40.442,373.738,40.309,372.724z"/>
							<path style="fill:#885929;" d="M16.175,354.549c-0.08-0.892-0.917-1.475-1.866-1.321c-0.949,0.154-1.664,0.986-1.599,1.877
								c0.065,0.891,0.897,1.503,1.862,1.35C15.536,356.303,16.256,355.441,16.175,354.549z"/>
							<path style="fill:#885929;" d="M28.016,363.225c-0.13-0.987-1.053-1.674-2.063-1.546c-1.01,0.128-1.731,1.025-1.61,2.013
								c0.121,0.988,1.047,1.691,2.065,1.561C27.427,365.123,28.146,364.211,28.016,363.225z"/>
							<path style="fill:#885929;" d="M2.956,348.437c0.187,0.523,0.766,0.823,1.471,0.677c0.867-0.178,1.575-0.955,1.576-1.709
								c0.001-0.734-0.656-1.175-1.478-1.038C3.991,347.023,3.467,347.713,2.956,348.437z"/>
							<path style="fill:#885929;" d="M11.821,408.576c0.882-0.044,1.455-0.702,1.268-1.491c-0.187-0.789-1.073-1.408-1.967-1.362
								c-0.895,0.045-1.45,0.734-1.252,1.521C10.068,408.032,10.937,408.619,11.821,408.576z"/>
							<path style="fill:#885929;" d="M41.777,342.886c0.191,0.73,1.07,1.306,1.953,1.262c0.86-0.042,1.39-0.655,1.23-1.361
								c-0.513-0.442-1.027-0.862-1.544-1.26c-0.133-0.02-0.268-0.032-0.405-0.025C42.143,341.547,41.586,342.155,41.777,342.886z"
								/>
							<path style="fill:#885929;" d="M56.646,370.807c0.129,0.957,0.892,1.65,1.68,1.55c0.789-0.101,1.306-0.939,1.179-1.875
								c-0.127-0.936-0.851-1.632-1.643-1.553C57.072,369.008,56.516,369.85,56.646,370.807z"/>
							<path style="fill:#885929;" d="M30.544,336.856c0.13,0.522,0.945,0.91,1.815,0.824c0.87-0.084,1.442-0.611,1.282-1.138
								c-0.041-0.135-0.125-0.255-0.24-0.36c-0.505-0.151-1.013-0.284-1.523-0.402c-0.015,0.001-0.03,0.001-0.044,0.002
								C30.993,335.872,30.414,336.333,30.544,336.856z"/>
							<path style="fill:#885929;" d="M13.816,340.019c0.863-0.134,1.555-0.712,1.549-1.25c-0.005-0.412-0.405-0.683-0.968-0.733
								c-0.718,0.372-1.421,0.779-2.108,1.22C12.283,339.795,12.962,340.153,13.816,340.019z"/>
							<path style="fill:#885929;" d="M19.401,395.509c-0.983,0.099-1.647,0.936-1.49,1.857c0.157,0.921,1.066,1.582,2.038,1.489
								c0.971-0.094,1.646-0.909,1.501-1.836C21.305,396.091,20.384,395.409,19.401,395.509z"/>
							<path style="fill:#885929;" d="M29.784,405.577c0.113,0.8,0.965,1.331,1.906,1.211c0.942-0.12,1.634-0.847,1.543-1.65
								c-0.091-0.802-0.948-1.373-1.911-1.25C30.358,404.01,29.671,404.778,29.784,405.577z"/>
							<path style="fill:#885929;" d="M48.458,382.577c0.101,0.987,0.932,1.658,1.844,1.508c0.912-0.151,1.563-1.057,1.467-2.031
								c-0.096-0.974-0.906-1.657-1.823-1.518C49.029,380.672,48.357,381.59,48.458,382.577z"/>
							<path style="fill:#885929;" d="M39.159,394.763c0.091,0.934,0.949,1.555,1.912,1.402c0.964-0.153,1.678-1.021,1.6-1.952
								c-0.078-0.931-0.93-1.575-1.906-1.425C39.789,392.938,39.068,393.829,39.159,394.763z"/>
							<path style="fill:#885929;" d="M7.324,386.104c-0.922,0.095-1.534,0.958-1.383,1.924c0.152,0.966,1.008,1.681,1.929,1.599
								c0.92-0.082,1.555-0.939,1.406-1.919C9.126,386.728,8.246,386.008,7.324,386.104z"/>
							<path style="fill:#885929;" d="M51.331,400.602c-0.877,0.18-1.579,1-1.563,1.811c0.016,0.811,0.734,1.305,1.599,1.126
								c0.865-0.179,1.559-0.966,1.555-1.778C52.917,400.949,52.208,400.421,51.331,400.602z"/>
							<path style="fill:#885929;" d="M59.924,389.032c-0.779,0.177-1.388,1.06-1.342,1.962c0.043,0.856,0.66,1.403,1.387,1.295
								c0.285-1.008,0.53-2.062,0.724-3.17C60.468,389.006,60.205,388.968,59.924,389.032z"/>
						</g>
						<path style="opacity:0.3;fill:#FE882D;" d="M60.84,380.75c-0.18-0.17-0.36-0.33-0.54-0.5c0.28-0.42,0.55-0.85,0.82-1.28
							c-0.01-0.15-0.02-0.3-0.04-0.45c-0.03-0.38-0.06-0.76-0.1-1.14s-0.08-0.77-0.13-1.16c0-0.02,0-0.03-0.01-0.04l-0.26,0.43
							c-0.53,0.84-1.05,1.67-1.56,2.47c-1.02-0.92-2.08-1.86-3.19-2.82c-0.81-0.71-1.65-1.43-2.5-2.16
							c-0.82-0.7-1.67-1.42-2.53-2.14c-0.16-0.13-0.31-0.25-0.46-0.38c-0.11-0.09-0.23-0.19-0.34-0.28c0.26-0.38,0.52-0.74,0.79-1.1
							c0.52-0.72,1.03-1.43,1.52-2.13c1.11-1.57,2.16-3.09,3.16-4.55c0.35-0.52,0.7-1.04,1.04-1.54c0.03-0.05,0.06-0.09,0.09-0.14
							c0.23,0.19,0.45,0.4,0.67,0.6l0.56,0.52c-0.03-0.1-0.06-0.19-0.09-0.29c-0.04-0.13-0.09-0.27-0.14-0.4
							c-0.04-0.11-0.08-0.21-0.12-0.32c-0.04-0.13-0.08-0.25-0.12-0.37c-0.02-0.05-0.03-0.09-0.05-0.13
							c-0.06-0.16-0.12-0.32-0.19-0.48c-0.24-0.65-0.5-1.29-0.75-1.9l-0.11,0.16c-0.07-0.06-0.13-0.12-0.2-0.17
							c-2.97-2.61-6.16-5.21-9.49-7.71c1.06-1.34,2.06-2.61,3.01-3.82c-0.19-0.23-0.38-0.46-0.57-0.68
							c-0.17-0.2-0.34-0.39-0.51-0.59c-0.03-0.03-0.05-0.05-0.06-0.06l-0.05,0.05c-0.89,1.14-1.83,2.34-2.81,3.58
							c-0.13,0.15-0.26,0.32-0.38,0.47c-3.39-2.5-6.78-4.84-10.09-6.92c1.32-1.38,2.56-2.65,3.71-3.76
							c0.22-0.23,0.42-0.42,0.63-0.62l0.09-0.09c-0.27-0.15-0.54-0.3-0.8-0.44c-0.27-0.14-0.53-0.28-0.8-0.42
							c-0.08,0.08-0.17,0.16-0.26,0.25c-1.25,1.24-2.61,2.62-4.06,4.15c-1.05-0.65-2.09-1.26-3.1-1.85
							c-0.49-0.28-0.97-0.55-1.45-0.82c0,0,0,0-0.01,0c-1.23-0.68-2.42-1.3-3.57-1.87c-0.25-0.14-0.51-0.26-0.76-0.38
							c0.35-0.27,0.68-0.53,1.03-0.77c0-0.01,0.01-0.01,0.01-0.01c0.6-0.46,1.19-0.87,1.76-1.25l0.46-0.3
							c-0.13-0.01-0.26-0.02-0.39-0.02c-0.22-0.02-0.46-0.02-0.68-0.03c-0.27-0.01-0.54-0.01-0.81-0.01H26.1
							c-0.09,0-0.18,0-0.27,0.01c-0.28,0-0.55,0-0.84,0.02c-0.66,0.48-1.33,0.99-2.02,1.54c-0.73-0.33-1.43-0.63-2.12-0.9
							c-0.05-0.02-0.1-0.04-0.15-0.06h-0.01c-0.3,0.07-0.61,0.14-0.92,0.23c-0.03,0.01-0.07,0.02-0.09,0.03
							c-0.31,0.07-0.61,0.16-0.9,0.25c-0.31,0.09-0.6,0.19-0.89,0.29l0.5,0.18c0.97,0.33,2.02,0.74,3.1,1.2
							c-1.06,0.9-2.16,1.88-3.28,2.93c-0.42,0.4-0.85,0.8-1.28,1.22c-0.91,0.89-1.85,1.83-2.81,2.82c-1.85-1.17-3.59-2.21-5.18-3.11
							c-0.1,0.09-0.19,0.17-0.27,0.25c-0.1,0.08-0.2,0.16-0.29,0.25c-0.16,0.15-0.32,0.29-0.48,0.45c-0.1,0.1-0.2,0.19-0.3,0.28
							l0.11,0.06c1.58,0.89,3.33,1.92,5.19,3.09c-2.65,2.83-5.36,5.92-8.02,9.21c-1.47-1.11-2.88-2.18-4.2-3.17l-0.05-0.03
							c-0.14,0.24-0.28,0.49-0.41,0.76c-0.07,0.14-0.14,0.28-0.22,0.43c0,0,0,0,0,0.01v0.49c1.21,0.89,2.48,1.85,3.8,2.86
							c-1.31,1.63-2.57,3.28-3.8,4.93v2.99c1.65-2.29,3.39-4.59,5.19-6.86c2.87,2.18,6.02,4.59,9.38,7.16
							c-2.79,3.55-5.48,7.13-8.03,10.61c-2.31-1.91-4.5-3.77-6.54-5.53v2.27c1.75,1.5,3.59,3.07,5.52,4.66
							c-1.98,2.73-3.83,5.36-5.52,7.85v3.11c2.02-3.06,4.33-6.38,6.85-9.87c3.3,2.71,6.78,5.49,10.35,8.28
							c-2.64,3.41-5.16,6.7-7.49,9.75c-3.41-2.67-6.68-5.4-9.71-8.12v2.3c2.74,2.41,5.64,4.82,8.67,7.19
							c-1.83,2.39-3.53,4.63-5.05,6.63c0.2,0.22,0.39,0.44,0.6,0.65c0.19,0.22,0.4,0.43,0.6,0.64l0.03-0.05
							c1.55-2.05,3.3-4.35,5.18-6.82c3.43,2.66,6.87,5.16,10.26,7.44c-1.89,2.12-3.64,4.01-5.21,5.63l-0.13,0.14l-0.01,0.01
							c0.08,0.03,0.15,0.05,0.23,0.07c0.28,0.1,0.56,0.19,0.84,0.27c0.26,0.08,0.51,0.16,0.77,0.23c0.28-0.29,0.56-0.59,0.86-0.9
							c1.26-1.34,2.64-2.84,4.09-4.48c1.2,0.8,2.39,1.55,3.54,2.27c2.05,1.29,4.01,2.45,5.88,3.48c-0.12,0.11-0.26,0.23-0.39,0.34
							l-0.44,0.4c0.15-0.02,0.3-0.04,0.43-0.05c0.22-0.03,0.43-0.06,0.62-0.08c0.04-0.01,0.07-0.01,0.11-0.01
							c0.03-0.01,0.07-0.02,0.1-0.02c0.07-0.01,0.13-0.02,0.19-0.03c0.06-0.01,0.11-0.02,0.17-0.02c0.17-0.04,0.34-0.06,0.52-0.08
							c0.08-0.01,0.16-0.02,0.24-0.02c0.03-0.01,0.06-0.02,0.09-0.01c0.11-0.02,0.23-0.03,0.35-0.04c0.11-0.01,0.24-0.03,0.38-0.04
							l0.21-0.03c0.18-0.02,0.37-0.05,0.58-0.08c0.2-0.03,0.41-0.06,0.63-0.1c0.05,0,0.1-0.01,0.15-0.02l-0.01-0.01l-0.51-0.25
							c-0.15-0.08-0.3-0.16-0.46-0.23c1.87-1.75,3.82-3.72,5.82-5.88c0.63-0.67,1.26-1.36,1.89-2.06c1.35,0.91,2.64,1.76,3.86,2.54
							c0.54,0.36,1.07,0.7,1.58,1.02c0.16,0.1,0.32,0.2,0.48,0.31c0,0,0,0,0.01,0h0.01c0.09-0.06,0.18-0.11,0.27-0.17
							c0.41-0.25,0.81-0.52,1.21-0.8h0.01c0.04-0.03,0.07-0.05,0.11-0.08l-0.15-0.1c-0.05-0.03-0.09-0.06-0.14-0.09
							c-0.07-0.04-0.14-0.08-0.22-0.13c-0.52-0.32-1.06-0.65-1.61-1c-1.34-0.85-2.77-1.79-4.27-2.8c0.69-0.79,1.38-1.59,2.08-2.4
							c0.39-0.46,0.78-0.92,1.16-1.39c0.78-0.92,1.56-1.86,2.33-2.82c0.6-0.75,1.2-1.5,1.79-2.27c0.24-0.3,0.47-0.59,0.7-0.89
							c2.31,1.82,4.45,3.52,6.37,5.05l0.06,0.05c0.28-0.5,0.56-1.02,0.81-1.56c-1.87-1.5-3.96-3.15-6.19-4.91
							c0.73-0.96,1.45-1.92,2.14-2.88c0.37-0.5,0.74-1,1.09-1.49c1.39-1.93,2.72-3.84,3.97-5.74c0.02-0.03,0.04-0.05,0.06-0.08
							c0.01,0.01,0.02,0.02,0.03,0.03c0.54,0.51,1.08,1,1.6,1.49l0.26,0.26c0.03-0.77,0.03-1.56,0-2.38L60.84,380.75z M44.43,375.98
							c-0.32,0.43-0.64,0.87-0.97,1.3c-1.22,1.64-2.47,3.29-3.74,4.94c-3.49-2.73-7.1-5.54-10.73-8.34
							c2.78-3.59,5.55-7.15,8.22-10.58c3.21,2.47,6.37,4.96,9.39,7.44c0.3,0.24,0.6,0.48,0.9,0.73c0.05,0.04,0.11,0.09,0.16,0.13
							C46.61,373.04,45.53,374.5,44.43,375.98z M27.93,375.25c3.62,2.8,7.24,5.61,10.74,8.33c-2.77,3.6-5.59,7.14-8.35,10.52
							c-3.52-2.58-7.12-5.31-10.71-8.09C22.32,382.5,25.12,378.87,27.93,375.25z M27.63,372.83c-3.6-2.78-7.17-5.55-10.63-8.19
							c2.78-3.53,5.56-6.95,8.28-10.17c3.43,2.44,6.98,5.06,10.57,7.78C33.17,365.67,30.4,369.24,27.63,372.83z M45.52,352.68
							c0.68,0.52,1.36,1.04,2.03,1.57c0,0,0.01,0,0.01,0.01c2.5,1.94,4.91,3.94,7.21,5.95c0.18,0.15,0.36,0.31,0.54,0.47
							c-0.29,0.43-0.58,0.86-0.88,1.3c-1.19,1.74-2.46,3.57-3.79,5.46c0,0,0,0,0,0.01c-0.64,0.91-1.3,1.82-1.97,2.75
							c-0.39-0.32-0.79-0.65-1.19-0.97c-2.97-2.43-6.05-4.87-9.2-7.29C40.82,358.68,43.26,355.55,45.52,352.68z M33.93,344.65
							c3.34,2.1,6.78,4.45,10.21,7c-2.25,2.87-4.69,5.98-7.24,9.24c-3.55-2.71-7.08-5.31-10.5-7.74
							C29.05,350.03,31.59,347.17,33.93,344.65z M19.41,342.12c0.23-0.22,0.45-0.42,0.67-0.62c0.84-0.79,1.66-1.52,2.47-2.21
							c0.24-0.19,0.46-0.39,0.69-0.57c0.59,0.27,1.2,0.57,1.81,0.88c0.73,0.37,1.49,0.76,2.25,1.17c0.24,0.13,0.49,0.26,0.74,0.4
							c1.41,0.78,2.88,1.63,4.39,2.56c-2.31,2.49-4.82,5.33-7.45,8.42c-3.32-2.33-6.47-4.45-9.35-6.31
							C16.92,344.52,18.18,343.27,19.41,342.12z M6.28,356.44c2.69-3.33,5.42-6.46,8.14-9.32c2.9,1.86,6.08,3.99,9.44,6.36
							c-2.69,3.2-5.46,6.6-8.23,10.11C12.34,361.06,9.18,358.66,6.28,356.44z M7.88,376.65c2.54-3.49,5.26-7.07,8.06-10.65
							c3.45,2.65,7.03,5.41,10.63,8.18c-2.81,3.64-5.62,7.26-8.32,10.78C14.68,382.17,11.19,379.39,7.88,376.65z M21.43,404.64
							c-3.41-2.3-6.9-4.82-10.36-7.49c2.33-3.06,4.86-6.35,7.49-9.77c3.57,2.78,7.17,5.48,10.67,8.07
							C26.5,398.78,23.87,401.87,21.43,404.64z M32.5,411.43c-1.69-0.92-3.47-1.95-5.3-3.07c-1.41-0.86-2.84-1.77-4.31-2.75
							c2.42-2.76,5.02-5.84,7.74-9.14c2.46,1.8,4.85,3.5,7.11,5.08c0.49,0.34,0.98,0.67,1.46,1.01h0.01
							c0.4,0.27,0.79,0.54,1.17,0.81c-0.3,0.33-0.6,0.66-0.9,0.99C37.06,407,34.72,409.36,32.5,411.43z M45.28,397.7
							c-0.39,0.47-0.77,0.93-1.17,1.39c-0.85,1.01-1.71,2.01-2.57,2.98c-0.81-0.55-1.63-1.12-2.48-1.71h-0.01
							c-0.01-0.01-0.02-0.02-0.03-0.03c-2.33-1.6-4.75-3.35-7.3-5.2c2.76-3.39,5.55-6.91,8.31-10.48c0.26,0.21,0.53,0.41,0.79,0.61
							c1.72,1.34,3.39,2.64,4.98,3.9c0.37,0.29,0.74,0.57,1.1,0.86c0.11,0.09,0.22,0.17,0.32,0.25c0.85,0.67,1.67,1.31,2.47,1.94
							C48.23,394.09,46.76,395.92,45.28,397.7z M54.33,385.95c-0.35,0.5-0.72,1.01-1.08,1.51c-0.82,1.12-1.66,2.25-2.51,3.37
							c-0.68-0.53-1.37-1.07-2.07-1.62c-0.33-0.26-0.66-0.52-1-0.79l-0.01-0.01c-0.14-0.1-0.27-0.21-0.41-0.31
							c-1.19-0.94-2.41-1.89-3.66-2.86c-0.63-0.5-1.27-1-1.92-1.5c-0.12-0.1-0.23-0.19-0.35-0.28c-0.07-0.06-0.15-0.12-0.23-0.18
							c0.16-0.21,0.32-0.41,0.47-0.62c1.67-2.19,3.31-4.36,4.9-6.51c0.37-0.51,0.75-1.02,1.12-1.52c0.47-0.65,0.94-1.29,1.41-1.93
							c0.59,0.49,1.16,0.97,1.73,1.45c0.92,0.78,1.82,1.55,2.7,2.3c0.04,0.04,0.08,0.07,0.11,0.1c1.59,1.37,3.11,2.71,4.53,3.99
							c-0.86,1.29-1.74,2.59-2.66,3.9C55.05,384.94,54.7,385.45,54.33,385.95z"/>
						<path style="opacity:0.3;fill:#FE882D;" d="M33.14,413.034c-0.46,0.046-0.91,0.103-1.367,0.174
							c-2.203,0.338-9.266,1.108-16.607-1.422c18.755-2.453,30.883-16.498,33.745-26.817c7.412-26.726-9.066-44.263-11.853-47.364
							c8.863,4.253,19.181,13.703,23.148,34.523C67.064,408.056,38.091,412.533,33.14,413.034z"/>
					</g>
					<g>
						<path style="fill:#578E43;" d="M3.572,303.849h0.01c0-0.01,0-0.01,0-0.02C3.582,303.829,3.582,303.839,3.572,303.849z"/>
						<path style="fill:#578E43;" d="M0,327.33v6.822c2.284,2.762,5.504,5.289,10.052,6.714c2.02,0.654,4.304,1.074,6.88,1.21
							c0.068,0,0.146,0.01,0.215,0.01c0.01,0,0.02,0,0.02,0c0.722,0.029,1.474,0.039,2.245,0.029c1.191-0.02,2.42-0.098,3.728-0.254
							c0.342-0.039,0.693-0.078,1.054-0.127c0.117-0.01,0.234-0.029,0.351-0.039h0.01c1.23-0.136,2.391-0.312,3.484-0.527
							c0.869-0.156,1.688-0.351,2.479-0.566c2.625-0.693,4.87-1.63,6.792-2.723c0.049-0.029,0.098-0.059,0.147-0.078
							c13.009-7.544,10.891-22.564,10.891-22.564c-3.416,7.876-11.194,15.478-11.438,15.713c9.369-15.303-1.483-30.918-1.483-30.918
							c2.498,10.696-4.792,23.676-7.407,27.873c0,0.01-0.01,0.02-0.01,0.02c-0.039,0.049-0.068,0.107-0.117,0.176
							c-0.4,0.634-0.664,1.044-0.742,1.161c-0.02,0.029-0.029,0.039-0.029,0.039c0.01-0.039,0.019-0.068,0.039-0.107
							c0.01-0.02,0.01-0.029,0.01-0.029c3.133-18.582-9.066-40.13-9.223-40.336c-0.098,0.234-6.061,22.193,0.449,41.311
							c0,0,0,0.01,0.01,0.029c0.029,0.059,0.078,0.098,0.107,0.147c-0.01-0.01-0.029-0.029-0.068-0.059
							c-0.156-0.146-0.586-0.546-1.201-1.152c-0.127-0.117-0.254-0.254-0.39-0.39c-0.283-0.273-0.586-0.586-0.908-0.927
							c0-0.02,0-0.02-0.01-0.02c-2.44-2.557-6.109-6.832-8.803-11.848c-0.146-0.263-0.283-0.537-0.42-0.8
							c-0.42-0.81-0.81-1.63-1.142-2.469c-0.234-0.556-0.459-1.122-0.654-1.688c-0.088-0.244-0.166-0.488-0.244-0.732
							c-0.019-0.068-0.049-0.146-0.068-0.225c-0.068-0.195-0.127-0.39-0.176-0.595c-0.098-0.342-0.195-0.693-0.273-1.034
							c-0.068-0.303-0.137-0.605-0.195-0.908c-0.088-0.439-0.166-0.888-0.215-1.327c-0.049-0.312-0.078-0.615-0.098-0.927
							c-0.049-0.449-0.068-0.908-0.068-1.366c-0.312,0.82-6.187,17.118,5.709,30.254c0.019,0.029,0.029,0.039,0.049,0.059
							c0.02,0.02,0.029,0.039,0.049,0.059C9.389,334.22,4.636,331.419,0,327.33z"/>
						<path style="opacity:0.2;fill:#606060;" d="M9.296,334.107c0.014,0.02,0.035,0.038,0.053,0.057
							c0.003-0.001,0.004,0.002,0.009,0.004c0,0,7.653,9.056,15.184,7.532c7.531-1.523,12.362-10.745,12.362-10.745
							c0.003-0.001,0.002-0.004,0.005-0.005c9.374-15.305-1.479-30.913-1.479-30.913c2.492,10.693-4.793,23.67-7.412,27.872
							c-0.001,0.008-0.006,0.013-0.008,0.017c-0.275,0.41-0.842,1.241-0.842,1.241s-1.695,10.908-2.97,12.569
							c-1.646-1.334-5.803-11.593-5.803-11.593s-0.741-0.668-1.095-0.998c-0.004-0.002-0.01-0.007-0.012-0.014
							c-3.031-2.985-10.922-11.465-13.129-20.756c-0.002-0.007-0.003-0.013-0.005-0.02c-0.07-0.296-0.134-0.592-0.193-0.889
							c-0.088-0.44-0.16-0.885-0.217-1.328c-0.04-0.306-0.074-0.613-0.097-0.922c-0.042-0.452-0.064-0.908-0.068-1.363
							C3.271,304.667-2.608,320.966,9.296,334.107z"/>
					</g>
				</g>
			</g>
			<g>
				<path style="fill:#6B3915;" d="M136.05,500H0v-98.372h112.99c0.11,0.314,0.23,0.627,0.34,0.941
					c5.93,16.315,10.79,32.641,14.58,48.968c1.18,5.028,2.25,10.067,3.21,15.095C133.26,477.75,134.91,488.881,136.05,500z"/>
				<g style="opacity:0.2;">
					<path style="fill:#606060;" d="M12.83,399.847l-0.12,1.556l-0.01,0.134c0,0.034-0.01,0.056-0.01,0.09
						c-1.19,15.767-2.11,32.384-2.78,49.909c-0.19,4.994-0.36,10.056-0.5,15.184C9.1,477.481,8.88,488.567,8.75,500H4.53
						c0.12-11.422,0.33-22.519,0.64-33.28c0.16-5.129,0.33-10.19,0.52-15.184c0.66-17.513,1.59-34.131,2.78-49.909
						c0.01-0.067,0.01-0.157,0.02-0.224c0-0.045,0.01-0.09,0.01-0.123l0.11-1.433H12.83z"/>
					<path style="fill:#606060;" d="M117.02,500h-4.24c-0.88-11.063-2.15-22.172-3.81-33.28c-0.74-5.061-1.58-10.123-2.49-15.184
						c-2.97-16.528-6.78-33.033-11.41-49.438l-0.13-0.47l-0.06-0.224l-0.38-1.332h4.35l0.31,1.086c0.03,0.078,0.05,0.157,0.07,0.246
						c0.02,0.067,0.04,0.157,0.06,0.224c4.66,16.562,8.49,33.235,11.47,49.909c0.9,5.061,1.73,10.123,2.47,15.184
						C114.88,477.828,116.14,488.937,117.02,500z"/>
					<path style="fill:#606060;" d="M76.31,500c-0.19-11.075-0.48-22.172-0.84-33.28c-0.16-5.061-0.34-10.123-0.55-15.184
						c-0.64-16.617-1.48-33.257-2.5-49.908c0-0.067-0.01-0.157-0.01-0.224c-0.01-0.034-0.01-0.078-0.01-0.101l-0.08-1.456h-4.23
						l0.1,1.556l0.01,0.112c0,0.045,0,0.067,0,0.112c1.03,16.651,1.86,33.291,2.51,49.908c0.2,5.061,0.39,10.134,0.55,15.184
						c0.36,11.108,0.64,22.205,0.84,33.28H76.31z"/>
					<rect x="38.6" y="395.984" style="fill:#606060;" width="3.7" height="104.016"/>
				</g>
				<g>
					<path style="fill:#885929;" d="M131.12,466.631c-0.33,0.056-0.67,0.09-1.03,0.09H0v-15.184h127.91
						C129.09,456.564,130.16,461.603,131.12,466.631z"/>
					<path style="fill:#885929;" d="M117.32,396.913v0.571c0,2.609-1.74,4.759-3.99,5.084c-0.19,0.034-0.39,0.045-0.59,0.045H0
						v-10.828h112.74C115.27,391.785,117.32,394.08,117.32,396.913z"/>
				</g>
				<path style="opacity:0.2;fill:#606060;" d="M136.05,500H61.22c32.78-33.862,35.53-97.387,35.53-97.387h-10
					c1.22,0,2.3-0.381,3.24-0.986c4.11-2.654,5.76-9.72,5.76-9.72l0.5-0.123h16.49c2.53,0,4.58,2.296,4.58,5.129v0.571
					c0,2.609-1.74,4.759-3.99,5.084c5.93,16.315,10.79,32.641,14.58,48.968c1.18,5.028,2.25,10.067,3.21,15.095
					C133.26,477.75,134.91,488.881,136.05,500z"/>
			</g>
		</g>
		<g>
			<g>
				<g>
					<g>
						<path style="fill:#FE882D;" d="M448.33,350.157c4.539,9.56,13.142,14.191,17.038,10.412
							c9.334,11.014,20.864,12.378,34.473,4.551c0.053,0.09,0.106,0.17,0.159,0.242v-59.557c-6.232,0.063-11.106,2.361-11.124,2.513
							c0.035-0.296-17.946-14.918-32.878,1.804c-1.789,2.002-3.526,4.452-5.192,7.432
							C443.561,330.526,444.496,342.088,448.33,350.157z"/>
						<path style="opacity:0.4;fill:#FFFFF2;" d="M448.33,350.157c4.539,9.56,13.142,14.191,17.038,10.412
							c9.334,11.014,20.864,12.378,34.473,4.551c0.053,0.09,0.106,0.17,0.159,0.242v-59.557c-6.232,0.063-11.106,2.361-11.124,2.513
							c0.035-0.296-17.946-14.918-32.878,1.804c-1.789,2.002-3.526,4.452-5.192,7.432
							C443.561,330.526,444.496,342.088,448.33,350.157z"/>
						<path style="opacity:0.3;fill:#606060;" d="M465.441,359.395c0,0-12.413-35.548,12.62-48.602
							C478.061,310.793,462.331,328.318,465.441,359.395z"/>
						<path style="opacity:0.3;fill:#606060;" d="M448.33,350.157c4.539,9.56,13.142,14.191,17.038,10.412
							c9.334,11.014,20.864,12.378,34.473,4.551c0.053,0.09,0.106,0.17,0.159,0.242v-10.619
							c-11.353-1.589-25.447-6.858-24.83-17.854c0.934-16.678-12.278-24.065-19.171-26.767c-1.789,2.002-3.526,4.452-5.192,7.432
							C443.561,330.526,444.496,342.088,448.33,350.157z"/>
					</g>
					<g>
						<path style="fill:#578E43;" d="M486.257,307.971l-6.516,1.498c0,0,9.303,9.744,18.57,1.825l-5.663-2.615
							c0,0,1.514-15.223-7.289-19.061c-1.436,0.084-2.192,0.666-2.591,1.507C482.769,291.125,490.621,297.185,486.257,307.971z"/>
						<path style="opacity:0.2;fill:#606060;" d="M486.257,307.971l-6.516,1.498c0,0,9.303,9.744,18.57,1.825
							c-7.646,2.899-9.19-2.59-9.19-2.59c2.124-11.469-4.71-17.465-4.71-17.465c1.004-0.476,0.948-1.621,0.948-1.621
							c-1.436,0.084-2.192,0.666-2.591,1.507C482.769,291.125,490.621,297.185,486.257,307.971z"/>
					</g>
				</g>
				<g>
					<g>
						<path style="fill:#FE882D;" d="M394.096,357.279c7.7,9.044,18.389,11.492,21.53,6.231c12.379,8.492,24.411,7.411,36.097-2.868
							c0.899-0.783,1.787-1.621,2.686-2.526c3.585,3.342,10.364,0.706,15.411-5.934c6.292-8.249,9.877-22.708,1.213-39.483
							c-0.509-0.982-1.051-1.974-1.635-2.967c-4.711-7.93-9.834-12.485-14.848-14.878c-14.707-7.047-28.516,4.533-28.472,4.809
							c-0.043-0.309-21.216-9.683-33.173,8.305c-2.231,3.353-4.137,7.654-5.534,13.146
							C383.255,337.372,387.609,349.669,394.096,357.279z"/>
						<path style="opacity:0.2;fill:#FFFFF2;" d="M394.096,357.279c7.7,9.044,18.389,11.492,21.53,6.231
							c12.379,8.492,24.411,7.411,36.097-2.868c0.899-0.783,1.787-1.621,2.686-2.526c3.585,3.342,10.364,0.706,15.411-5.934
							c6.292-8.249,9.877-22.708,1.213-39.483c-0.509-0.982-1.051-1.974-1.635-2.967c-4.711-7.93-9.834-12.485-14.848-14.878
							c-14.707-7.047-28.516,4.533-28.472,4.809c-0.043-0.309-21.216-9.683-33.173,8.305c-2.231,3.353-4.137,7.654-5.534,13.146
							C383.255,337.372,387.609,349.669,394.096,357.279z"/>
						<path style="opacity:0.3;fill:#606060;" d="M394.096,357.279c7.7,9.044,18.389,11.492,21.53,6.231
							c12.379,8.492,24.411,7.411,36.097-2.868c0.899-0.783,1.787-1.621,2.686-2.526c3.585,3.342,10.364,0.706,15.411-5.934
							c-3.422-0.915-8.155-0.926-14.512,0.221c-52.483,9.452-62.403-44.435-62.403-44.435c-2.231,3.353-4.137,7.654-5.534,13.146
							C383.255,337.372,387.609,349.669,394.096,357.279z"/>
						<path style="opacity:0.3;fill:#606060;" d="M454.268,356.261c0,0,13.223-40.288-15.232-54.435
							C439.037,301.826,457.114,321.21,454.268,356.261z"/>
						<path style="opacity:0.2;fill:#FFFFF2;" d="M451.214,297.116c0,0,13.267,3.652,16.516,21.711c0,0-7.987-18.611-22.337-20.541
							L451.214,297.116z"/>
						<path style="opacity:0.3;fill:#606060;" d="M415.368,362.196c0,0-23.759-34.915-0.324-56.6
							C415.043,305.595,403.01,329.353,415.368,362.196z"/>
					</g>
					<g>
						<path style="fill:#578E43;" d="M430.336,297.518l7.389,1.553c0,0-10.19,11.14-20.875,2.424l6.303-3.053
							c0,0-2.168-17.082,7.637-21.573c1.621,0.066,2.49,0.705,2.966,1.642C433.757,278.511,425.09,285.481,430.336,297.518z"/>
						<path style="opacity:0.2;fill:#606060;" d="M430.336,297.518l7.389,1.553c0,0-10.19,11.14-20.875,2.424
							c8.706,3.105,10.28-3.095,10.28-3.095c-2.742-12.85,4.779-19.727,4.779-19.727c-1.147-0.515-1.118-1.803-1.118-1.803
							c1.621,0.066,2.49,0.705,2.966,1.642C433.757,278.511,425.09,285.481,430.336,297.518z"/>
					</g>
				</g>
			</g>
			<g>
				<path style="fill:#6B3915;" d="M500,359.423V500H361.96c-0.01-1.176-0.02-2.34-0.02-3.505c0-9.899,0.39-19.798,1.18-29.719
					c1.12-14.12,3.04-28.241,5.76-42.35c0.96-5.028,2.03-10.067,3.21-15.095c2.62-11.298,5.76-22.586,9.41-33.884
					c1.67-5.14,3.43-10.291,5.31-15.431c0.07-0.202,0.14-0.392,0.21-0.594H500z"/>
				<g style="opacity:0.2;">
					<path style="fill:#606060;" d="M405.5,357.867l-0.38,1.333l-0.06,0.224l-0.13,0.47c-4.63,16.416-8.44,32.91-11.41,49.438
						c-0.92,5.061-1.75,10.123-2.5,15.184c-2.11,14.165-3.6,28.319-4.46,42.372c-0.61,9.787-0.91,19.742-0.91,29.607
						c0,1.165,0,2.329,0.01,3.505h-4.22c-0.01-1.165-0.01-2.34-0.01-3.505c0-9.932,0.31-19.966,0.91-29.82
						c0.86-13.997,2.33-28.073,4.42-42.16c0.74-5.061,1.57-10.123,2.48-15.184c2.98-16.673,6.81-33.347,11.47-49.908
						c0.02-0.067,0.04-0.157,0.06-0.224c0.02-0.09,0.04-0.168,0.07-0.246l0.31-1.086H405.5z"/>
					<path style="fill:#606060;" d="M427.8,500c-0.21-26.807,0.02-51.924,0.7-75.484c0.14-5.129,0.32-10.19,0.5-15.184
						c0.67-17.525,1.6-34.142,2.79-49.909c0-0.034,0.01-0.056,0.01-0.09v-0.134l0.13-1.556h-4.23l-0.11,1.433
						c0,0.034-0.01,0.078-0.01,0.123c-0.01,0.067-0.01,0.157-0.02,0.224c-1.19,15.778-2.11,32.395-2.77,49.909
						c-0.2,4.994-0.36,10.056-0.52,15.184c-0.68,23.56-0.91,48.677-0.71,75.484H427.8z"/>
					<path style="fill:#606060;" d="M495.75,500h-4.21c0.03-25.061-0.37-50.244-1.19-75.484c-0.16-5.05-0.34-10.123-0.54-15.184
						c-0.65-16.617-1.49-33.257-2.51-49.908c0-0.034-0.01-0.067-0.01-0.112l-0.01-0.112l-0.09-1.557h4.22l0.08,1.456
						c0,0.023,0,0.067,0.01,0.101c0,0.067,0.01,0.157,0.01,0.224c1.02,16.651,1.87,33.291,2.51,49.908
						c0.2,5.061,0.39,10.123,0.55,15.184C495.4,449.756,495.79,474.939,495.75,500z"/>
					<rect x="457.69" y="353.78" style="fill:#606060;" width="3.7" height="146.221"/>
				</g>
				<g>
					<path style="fill:#885929;" d="M500,409.332v15.184H369.91c-0.36,0-0.7-0.034-1.03-0.09c0.96-5.028,2.03-10.067,3.21-15.095
						H500z"/>
					<path style="fill:#885929;" d="M500,349.211v10.828H387.26c-0.15,0-0.3-0.011-0.45-0.022c-2.32-0.258-4.13-2.441-4.13-5.106
						v-0.571c0-2.833,2.05-5.129,4.58-5.129H500z"/>
				</g>
				<path style="opacity:0.2;fill:#606060;" d="M431.007,500H361.96c-0.01-1.176-0.02-2.34-0.02-3.505
					c0-9.899,0.39-19.798,1.18-29.719c1.12-14.12,3.04-28.241,5.76-42.35c0.96-5.028,2.03-10.067,3.21-15.095
					c2.62-11.298,5.76-22.586,9.41-33.884c1.67-5.14,3.43-10.291,5.31-15.431c-2.32-0.258-4.13-2.441-4.13-5.106v-0.571
					c0-2.833,2.05-5.129,4.58-5.129h26.536c0,0-2.29,6.282,4.38,10.212c0.28,0.157,0.57,0.314,0.88,0.47c0,0-9.61,0.045-9.62,0.146
					C408.886,364.059,396.596,450.427,431.007,500z"/>
			</g>
		</g>
	</g>
	<g>
		<g>
			<polygon style="fill:#2E3442;" points="303.548,341.224 302.016,402.475 300.744,453.079 299.564,500 258.655,500 
				249.446,399.102 247.532,378.161 244.749,399.112 231.34,500 190.689,500 190.948,452.148 191.217,402.858 191.558,340.366 			
				"/>
			<path style="opacity:0.2;fill:#606060;" d="M303.548,341.224l-1.531,61.251l-1.273,50.604
				c-19.741,5.225-39.813,5.018-39.813,5.018L262.617,500h-3.963l-9.208-100.898l-1.914-20.941l-2.783,20.951L231.34,500h-1.024
				l1.128-41.903c-11.65-0.559-30.625-4.014-40.496-5.949l0.269-49.29l0.341-62.492L303.548,341.224z"/>
			<path style="fill:#FFFFF2;" d="M312,443.77c-13.17,3.38-26.34,5.71-39.53,6.98c-7.68,0.76-15.36,1.15-23.05,1.18
				c-15.23,0.09-30.48-1.23-45.74-3.95c-6.49-1.15-12.97-2.55-19.46-4.21l0.3-5.29l0.12-2.11l6.98-123.52l0.21-7.08l0.35-12.08
				l0.5-16.93l0.41-13.73l0.19-6.32v-0.02l1.71-24.81l4.61-83.55c1.32-1.24,7.51-3.5,16.06-4.97c1.24-0.21,2.47-0.42,3.66-0.61
				c6.21-1.01,11.25-1.75,11.25-1.75c13.13,0,38.63,0,38.63,0c4.17,0.66,8.54,1.42,12.63,2.18c1.24,0.23,2.46,0.46,3.63,0.68
				c7.78,1.48,14.06,3.99,14.06,3.99l1.47,84.03l1.48,34.42l0.25,8.92l0.86,30.7l0.19,6.86l0.3,4.81l7.47,118.79l0.13,2.1
				L312,443.77z"/>
			<path style="opacity:0.3;fill:#FE882D;" d="M312,443.77c-13.17,3.38-26.34,5.71-39.53,6.98c-7.68,0.76-15.36,1.15-23.05,1.18
				c-15.23,0.09-30.48-1.23-45.74-3.95c-6.49-1.15-12.97-2.55-19.46-4.21l0.3-5.29l0.12-2.11l6.98-123.52l0.21-7.08l0.35-12.08
				l0.5-16.93l0.41-13.73l0.19-6.32v-0.02l1.71-24.81l4.61-83.55c1.32-1.24,7.51-3.5,16.06-4.97c1.24-0.21,2.47-0.42,3.66-0.61
				c6.21-1.01,11.25-1.75,11.25-1.75c13.13,0,38.63,0,38.63,0c4.17,0.66,8.54,1.42,12.63,2.18c1.24,0.23,2.46,0.46,3.63,0.68
				c7.78,1.48,14.06,3.99,14.06,3.99l1.47,84.03l1.48,34.42l0.25,8.92l0.86,30.7l0.19,6.86l0.3,4.81l7.47,118.79l0.13,2.1
				L312,443.77z"/>
			<path style="fill:#FFFFF2;" d="M311.535,436.38c-21.107,5.38-42.234,8.06-63.392,8.06c-21.148,0-42.317-2.69-63.506-8.07
				l-0.114,2.111c21.117,5.329,42.524,8.029,63.62,8.029s42.462-2.7,63.527-8.029L311.535,436.38z"/>
			<path style="opacity:0.2;fill:#606060;" d="M280.57,192.796c-4.682,17.68-55.384,17.985-60.035,0.45
				c-4.64-17.531-5.105-37.99-4.884-49.887c1.24-0.215,2.479-0.419,3.667-0.611c6.208-1.017,11.251-1.747,11.251-1.747
				c13.141,0,38.62,0,38.62,0c4.186,0.658,8.564,1.424,12.637,2.178c1.251,0.227,2.465,0.455,3.64,0.682
				C285.647,155.688,285.101,175.594,280.57,192.796z"/>
			<g>
				<path style="opacity:0.2;fill:#606060;" d="M251.283,312.937c-21.085,0-31.624-11.394-35.975-18.036
					c1.51,3.545,10.648,22.155,35.976,22.155c25.83,0,35.068-19.34,36.343-22.336C283.259,301.335,272.559,312.937,251.283,312.937z
					"/>
				<path style="fill:#FFFFF2;" d="M290.843,285.561l-3.799-45.185h-71.293l-0.07,0.788l-3.851,44.409
					c-0.763,10.081,1.959,18.409,8.086,24.735c7.05,7.281,18.488,11.462,31.36,11.462c9.075,0,17.454-2.079,24.084-5.881
					c2.77-1.56,5.224-3.433,7.311-5.569C288.83,303.983,291.577,295.654,290.843,285.561z M281.714,309.454
					c-3.064,3.179-7.022,5.732-11.573,7.581c-0.013,0-0.013,0-0.026,0c-5.548,2.266-11.976,3.475-18.836,3.475
					c-12.504,0-23.587-4.029-30.403-11.057c-5.881-6.073-8.489-14.075-7.756-23.793l3.207-36.912l70.119,0l3.108,36.9
					C290.245,295.379,287.613,303.393,281.714,309.454z"/>
			</g>
			<path style="opacity:0.2;fill:#606060;" d="M221.019,278.243c0,0-0.763,1.964-4.002,1.738c-3.127-0.225-7.704-2.076-7.979-2.189
				l7.291,10.593c0,0-1.138,3.614-2.201,4.152c-1.063,0.513-5.528,1.413-5.528,1.413l-6.478,3.664c0,0-5.04,5.303-10.293,8.154
				l0.35-12.081l0.913-30.666l2.914,6.428c0,0,15.058-2.751,18.009,0C216.992,272.227,221.019,278.243,221.019,278.243z"/>
			<path style="opacity:0.2;fill:#606060;" d="M303.575,305.92c-3.702-2.726-6.954-8.304-6.954-8.304l-4.502-3.664
				c0,0-3.102-0.901-3.84-1.413c-0.738-0.538-1.526-4.152-1.526-4.152l5.065-10.593c-0.2,0.113-3.377,1.964-5.54,2.189
				c-2.251,0.225-2.789-1.738-2.789-1.738s2.802-6.016,4.865-8.792c2.051-2.751,12.507,0,12.507,0l1.613-3.152L303.575,305.92z"/>
			<path style="opacity:0.2;fill:#606060;" d="M197.032,337.44c0,0-9.722,51.85,6.648,110.54c-6.49-1.15-12.97-2.55-19.46-4.21
				l0.3-5.29l0.12-2.11l6.98-123.52l0.21-7.08l0.35-12.08l0.5-16.93l110.04-1.54l0.86,30.7l0.19,6.86l1.096,17.467
				C288.354,337.098,225.716,351.848,197.032,337.44z"/>
			<path style="opacity:0.2;fill:#606060;" d="M272.47,450.75c-7.68,0.76-15.36,1.15-23.05,1.18c2.9-11.55,9.76-40.69,11.58-65.08
				C262.91,361.24,270,426.57,272.47,450.75z"/>
		</g>
		<g>
			<path style="fill:#ED3902;" d="M277.367,193.541c-4.198,16.624-49.248,16.918-53.471,0.421
				c-4.746-18.551-4.848-40.725-4.568-51.098c2.195-0.383,4.249-0.727,5.984-1.021c3.151-0.523,5.257-0.842,5.257-0.842
				c13.141,0,38.62,0,38.62,0c2.195,0.37,4.41,0.665,6.63,1.073c2.029,0.383,4.069,0.728,6.008,1.111
				C282.094,153.597,281.947,175.309,277.367,193.541z"/>
			<path style="opacity:0.3;fill:#606060;" d="M250.663,175.041c-24.751,0.064-25.721-24.853-25.351-33.197
				c3.151-0.523,5.257-0.842,5.257-0.842c13.141,0,38.62,0,38.62,0c2.195,0.37,4.44,0.766,6.66,1.174
				C276.244,150.711,275.185,174.977,250.663,175.041z"/>
		</g>
		<g>
			<g>
				<g>
					<path style="fill:#E5B7AC;" d="M167.401,227.299l-6.724,8.37l19.733,49.043l-12.581,14.74l-31.559-52.224
						c-4.236-6.086-6.392-11.317-2.934-16.867c3.164-5.078,7.617-12.159,12.516-19.916c6.124-9.709,12.95-20.49,18.755-29.663
						c7.872-12.414,13.907-21.893,13.907-21.893l17.492,32.815l-3.049,3.802L167.401,227.299z"/>
					<path style="opacity:0.5;fill:#E5B7AC;" d="M160.678,235.669c0,0-7.345-7.557-16.532,1.015c0,0,5.416-13.099,19.004-4.092
						L160.678,235.669z"/>
					<path style="fill:#FCBD15;" d="M176.571,261.015c0,0-28.028,0.63-19.838,30.316c0,0,7.259,2.13,14.925,12.864
						c7.666,10.734,19.564-10.304,19.564-10.304S195.087,262.183,176.571,261.015z"/>
					<path style="opacity:0.2;fill:#606060;" d="M176.571,261.015c0,0-23.631,3.993-17.552,30.376c0,0,4.973,2.069,12.639,12.804
						c7.666,10.734,19.564-10.304,19.564-10.304S195.087,262.183,176.571,261.015z"/>
					<path style="opacity:0.5;fill:#E5B7AC;" d="M193.161,190.887c0,0,0,1.812-0.204,4.619l-25.555,31.794
						c-12.082-2.768-18.857-12.197-21.549-16.854c6.124-9.709,12.95-20.49,18.755-29.663L193.161,190.887z"/>
				</g>
				<g>
					<path style="fill:#ED3902;" d="M194.998,231.88l0.242-11.419l0.51-23.935c0,0,0,0.013-0.013,0.025l-18.079,28.86
						c-13.741-2.182-25.504-8.778-34.231-22.11c13.601-17.556,31.322-38.684,35.086-44.412
						c8.076-12.337,30.276-14.047,30.276-14.047C209.981,166.54,212.847,221.941,194.998,231.88z"/>
					<path style="opacity:0.3;fill:#606060;" d="M203.967,184.342c0,0-0.51,23.195-8.727,36.119l0.51-23.935L203.967,184.342z"/>
				</g>
			</g>
			<g>
				<g>
					<path style="fill:#E5B7AC;" d="M328.598,227.299l6.724,8.37l-19.733,49.043l12.581,14.74l31.559-52.224
						c4.236-6.086,6.392-11.317,2.935-16.867c-3.164-5.078-7.617-12.159-12.516-19.916c-6.124-9.709-12.95-20.49-18.755-29.663
						c-7.872-12.414-13.907-21.893-13.907-21.893l-17.492,32.815l3.049,3.802L328.598,227.299z"/>
					<path style="opacity:0.5;fill:#E5B7AC;" d="M335.322,235.669c0,0,7.345-7.557,16.532,1.015c0,0-5.416-13.099-19.004-4.092
						L335.322,235.669z"/>
					<path style="fill:#FCBD15;" d="M319.429,261.015c0,0,28.028,0.63,19.838,30.316c0,0-7.259,2.13-14.925,12.864
						c-7.666,10.734-19.564-10.304-19.564-10.304S300.913,262.183,319.429,261.015z"/>
					<path style="opacity:0.2;fill:#606060;" d="M319.429,261.015c0,0,23.631,3.993,17.552,30.376c0,0-4.973,2.069-12.639,12.804
						c-7.666,10.734-19.564-10.304-19.564-10.304S300.913,262.183,319.429,261.015z"/>
					<path style="opacity:0.5;fill:#E5B7AC;" d="M302.839,190.887c0,0,0,1.812,0.204,4.619l25.555,31.794
						c12.082-2.768,18.857-12.197,21.549-16.854c-6.124-9.709-12.95-20.49-18.755-29.663L302.839,190.887z"/>
				</g>
				<g>
					<path style="fill:#ED3902;" d="M301.002,231.88l-0.242-11.419l-0.51-23.935c0,0,0,0.013,0.013,0.025l18.079,28.86
						c13.741-2.182,25.504-8.778,34.231-22.11c-13.6-17.556-31.322-38.684-35.086-44.412c-8.076-12.337-26.551-13.598-26.551-13.598
						C289.745,166.989,285.495,222.544,301.002,231.88z"/>
					<path style="opacity:0.3;fill:#606060;" d="M292.033,184.342c0,0,0.51,23.195,8.727,36.119l-0.51-23.935L292.033,184.342z"/>
				</g>
			</g>
			<g>
				<g>
					<path style="fill:#578E43;" d="M213.122,241.908c-0.285,3.361,1.475,6.843,4.461,8c16.256,6.291,37.341,8.061,62.918,3.379
						c5.77-1.057,9.712-5.426,9.858-10.076c0.035-1.025-0.115-2.076-0.484-3.104c-1.464-4.164-5.41-6.731-9.709-7.096
						c-1.454-0.123-2.949-0.001-4.406,0.405c-21.874,6.066-40.454,6.233-55.127,1.966c-1.044-0.307-2.107-0.252-3.093,0.111
						c-1.896,0.68-3.502,2.475-4.171,4.983C213.245,240.943,213.163,241.424,213.122,241.908z"/>
					<path style="opacity:0.3;fill:#606060;" d="M213.122,241.908c-0.285,3.361,1.475,6.843,4.461,8
						c16.256,6.291,37.341,8.061,62.918,3.379c5.77-1.057,9.712-5.426,9.858-10.076c-24.437,12.286-62.927,5.893-69.444,1.934
						c-3.555-2.16-3.857-6.308-3.376-9.653c-1.896,0.68-3.502,2.475-4.171,4.983C213.245,240.943,213.163,241.424,213.122,241.908z"
						/>
					<path style="opacity:0.6;fill:#FFFFF2;" d="M281.815,235.806c0.226,1.003-2.423,2.455-5.918,3.242
						c-3.494,0.787-6.51,0.612-6.736-0.391s2.423-2.455,5.918-3.242C278.574,234.628,281.589,234.803,281.815,235.806z"/>
				</g>
				<g>
					<path style="fill:#578E43;" d="M251.54,245.153c0,3.373-2.049,6.694-5.122,7.594c-16.73,4.894-37.888,4.873-62.978-1.955
						c-5.66-1.542-9.219-6.229-8.97-10.874c0.052-1.024,0.29-2.059,0.745-3.052c1.811-4.025,5.96-6.249,10.274-6.249
						c1.459,0,2.938,0.248,4.356,0.776c21.283,7.894,39.782,9.633,54.763,6.622c1.066-0.217,2.121-0.072,3.073,0.372
						c1.831,0.838,3.28,2.763,3.735,5.318C251.498,244.181,251.54,244.667,251.54,245.153z"/>
					<path style="opacity:0.3;fill:#606060;" d="M251.54,245.153c0,3.373-2.049,6.694-5.122,7.594
						c-16.73,4.894-37.888,4.873-62.978-1.955c-5.66-1.542-9.219-6.229-8.97-10.874c23.31,14.309,62.203,11.195,69.031,7.801
						c3.725-1.852,4.377-5.959,4.18-9.332c1.831,0.838,3.28,2.763,3.735,5.318C251.498,244.181,251.54,244.667,251.54,245.153z"/>
					<path style="opacity:0.6;fill:#FFFFF2;" d="M195.644,236.138c-0.259,0.995-3.279,1.07-6.745,0.168
						c-3.466-0.902-6.066-2.44-5.807-3.436c0.259-0.995,3.279-1.07,6.745-0.168C193.303,233.605,195.903,235.143,195.644,236.138z"
						/>
				</g>
				<g>
					<path style="fill:#578E43;" d="M248.637,223.304c-1.203,3.151-0.473,6.984,2.076,8.921
						c13.885,10.539,33.659,18.065,59.535,20.634c5.837,0.578,10.834-2.531,12.259-6.96c0.317-0.975,0.464-2.027,0.393-3.117
						c-0.256-4.406-3.339-7.964-7.37-9.502c-1.363-0.52-2.834-0.816-4.346-0.828c-22.698-0.215-40.601-5.189-53.524-13.345
						c-0.918-0.583-1.956-0.824-3.004-0.748c-2.01,0.13-4.049,1.411-5.386,3.636C249.023,222.41,248.811,222.849,248.637,223.304z"
						/>
					<path style="opacity:0.3;fill:#606060;" d="M248.637,223.304c-1.203,3.151-0.473,6.984,2.076,8.921
						c13.885,10.539,33.659,18.065,59.535,20.634c5.837,0.578,10.834-2.531,12.259-6.96c-26.881,5.055-62.105-11.726-67.274-17.331
						c-2.819-3.059-1.963-7.129-0.577-10.21c-2.01,0.13-4.049,1.411-5.386,3.636C249.023,222.41,248.811,222.849,248.637,223.304z"
						/>
					<path style="opacity:0.6;fill:#FFFFF2;" d="M316.343,236.422c-0.06,1.026-3.007,1.689-6.583,1.48
						c-3.576-0.209-6.426-1.21-6.365-2.237c0.06-1.026,3.007-1.689,6.583-1.48C313.553,234.394,316.403,235.395,316.343,236.422z"/>
				</g>
				<g>
					<g>
						<path style="fill:#578E43;" d="M217.188,220.231c0,0,3.389-6.314,9.835-6.058c0,0-6.546,4.206-6.858,5.924
							c0,0,3.037,0.113,4.475,3.775c0,0-4.97-3.18-8.393-1.515c0,0-6.827,2.299-7.63,6.871c0,0-1.402-4.638,4.44-7.992
							c0,0-3.989-2.514-6.996-2.512c0,0,4.428-2.442,8.979,0.917C215.039,219.641,216.255,220.705,217.188,220.231z"/>
						<g>
							<path style="fill:#578E43;" d="M219.074,214.428c-0.285,0.463-0.58,0.991-0.842,1.562c-0.044,0.091-0.084,0.181-0.123,0.274
								c-0.058,0.123-0.111,0.249-0.16,0.378c-0.042,0.098-0.079,0.198-0.114,0.298c-0.086,0.233-0.167,0.468-0.233,0.706
								c-0.069,0.239-0.13,0.484-0.183,0.73c-0.025,0.123-0.05,0.245-0.067,0.37c-0.02,0.114-0.036,0.227-0.049,0.34
								c-0.003,0.015-0.003,0.03-0.007,0.045c-0.014,0.124-0.025,0.243-0.031,0.369c-0.003,0.019-0.005,0.041-0.004,0.059
								c-0.007,0.107-0.01,0.214-0.01,0.32c-0.002,0.11-0.001,0.219,0.003,0.327c0.001,0.033,0.004,0.061,0.005,0.094
								c0.006,0.115,0.015,0.226,0.028,0.34c0.236,0.88-2.091,1.151-2.15-0.59c0,0-0.007-0.06-0.016-0.171
								c-0.004-0.032-0.006-0.068-0.011-0.107c-0.03-0.379-0.078-1.116-0.065-2.005c0-0.059,0.001-0.117,0.005-0.176
								c0-0.091,0.006-0.187,0.008-0.283c0.03-0.777,0.109-1.639,0.286-2.466c0.019-0.088,0.037-0.177,0.06-0.263
								c0.049-0.205,0.102-0.404,0.161-0.597c0.031-0.099,0.062-0.194,0.098-0.287c0.104-0.292,0.226-0.569,0.364-0.829
								c0.043-0.08,0.086-0.156,0.134-0.229c0.008-0.013,0.016-0.026,0.026-0.043c0.237-0.36,0.6-0.609,1.006-0.708
								c0.258-0.063,0.531-0.067,0.798-0.004C219.124,212.14,219.684,213.438,219.074,214.428z"/>
							<path style="opacity:0.2;fill:#606060;" d="M219.074,214.428c-0.285,0.463-0.58,0.991-0.842,1.562
								c-0.044,0.091-0.087,0.182-0.123,0.274c-0.058,0.123-0.111,0.249-0.16,0.378c-0.042,0.098-0.079,0.198-0.114,0.298
								c-0.086,0.233-0.167,0.468-0.233,0.706c-0.073,0.24-0.134,0.485-0.183,0.73c-0.025,0.123-0.05,0.245-0.067,0.37
								c-0.02,0.114-0.037,0.224-0.049,0.34c-0.003,0.015-0.003,0.03-0.007,0.045c-0.015,0.12-0.025,0.243-0.031,0.369
								c-0.003,0.019-0.005,0.041-0.004,0.059c-0.007,0.107-0.01,0.214-0.01,0.32c-0.002,0.11-0.001,0.219,0.003,0.327
								c0.001,0.033,0.004,0.061,0.005,0.094c0.006,0.115,0.015,0.226,0.028,0.34c0.236,0.88-2.091,1.151-2.15-0.59
								c0,0-0.007-0.06-0.016-0.171c-0.004-0.032-0.006-0.068-0.011-0.107c-0.03-0.379-0.078-1.116-0.065-2.005
								c0-0.059,0.001-0.117,0.005-0.176c0-0.091,0.006-0.187,0.008-0.283c0.03-0.777,0.109-1.639,0.286-2.466
								c0.019-0.088,0.037-0.177,0.06-0.263c0.049-0.205,0.102-0.404,0.161-0.597c0.031-0.099,0.062-0.194,0.098-0.287
								c0.104-0.292,0.226-0.569,0.364-0.829c0.043-0.08,0.086-0.156,0.134-0.229c0.008-0.013,0.016-0.026,0.026-0.043
								c0.237-0.36,0.6-0.609,1.006-0.708c0.258-0.063,0.531-0.067,0.798-0.004C219.124,212.14,219.684,213.438,219.074,214.428z"/>
						</g>
					</g>
					<g>
						<path style="fill:#ED3902;" d="M238.102,233.235c2.394,9.845-4.243,19.91-14.824,22.483c-1.098,0.267-2.197,0.443-3.287,0.528
							c-4.406,0.364-8.649-0.686-12.14-2.813c-3.945-2.407-6.922-6.196-8.063-10.879c-2.396-9.841,4.24-19.909,14.818-22.481
							c5.505-1.337,10.986-0.387,15.315,2.22c1.514,0.904,2.884,2.011,4.066,3.291C235.941,227.702,237.385,230.292,238.102,233.235
							z"/>
						<path style="opacity:0.3;fill:#606060;" d="M238.102,233.235c2.394,9.845-4.243,19.91-14.824,22.483
							c-1.098,0.267-2.197,0.443-3.287,0.528c-4.406,0.364-8.649-0.686-12.14-2.813c19.829-2.688,22-23.067,22.07-31.141
							c1.514,0.904,2.884,2.011,4.066,3.291C235.941,227.702,237.385,230.292,238.102,233.235z"/>
						<path style="opacity:0.6;fill:#FFFFF2;" d="M212.231,224.341c1.24,1.218,0.414,4.07-1.844,6.371
							c-2.259,2.301-5.096,3.179-6.336,1.961c-1.24-1.218-0.414-4.07,1.845-6.371C208.154,224.001,210.99,223.123,212.231,224.341z"
							/>
					</g>
				</g>
				<g>
					<g>
						<path style="fill:#578E43;" d="M285.388,222.467c0,0,5.031-4.586,10.725-2.32c0,0-7.194,1.7-8.016,3.14
							c0,0,2.685,1.061,2.816,4.796c0,0-3.448-4.42-7.041-4.01c0,0-6.843-0.098-9.008,3.745c0,0,0.21-4.598,6.503-5.757
							c0,0-2.779-3.512-5.474-4.461c0,0,4.739-0.789,7.755,3.659C283.648,221.259,284.402,222.596,285.388,222.467z"/>
						<g>
							<path style="fill:#578E43;" d="M288.911,217.864c-0.402,0.325-0.832,0.705-1.248,1.133c-0.068,0.068-0.132,0.135-0.197,0.207
								c-0.091,0.092-0.178,0.188-0.263,0.288c-0.068,0.074-0.134,0.152-0.196,0.231c-0.15,0.181-0.298,0.366-0.432,0.559
								c-0.138,0.193-0.27,0.392-0.395,0.596c-0.061,0.102-0.122,0.204-0.177,0.311c-0.054,0.096-0.104,0.193-0.151,0.289
								c-0.008,0.013-0.013,0.026-0.021,0.039c-0.051,0.107-0.099,0.21-0.144,0.321c-0.008,0.016-0.017,0.035-0.022,0.052
								c-0.04,0.094-0.077,0.188-0.11,0.283c-0.037,0.098-0.071,0.196-0.101,0.294c-0.01,0.03-0.016,0.056-0.026,0.085
								c-0.031,0.105-0.058,0.207-0.082,0.313c-0.067,0.863-2.237,0.37-1.739-1.208c0,0,0.012-0.056,0.04-0.158
								c0.006-0.03,0.016-0.063,0.023-0.099c0.093-0.349,0.283-1.024,0.576-1.817c0.019-0.052,0.038-0.105,0.06-0.157
								c0.029-0.082,0.064-0.166,0.096-0.251c0.272-0.686,0.615-1.434,1.036-2.119c0.045-0.073,0.089-0.147,0.137-0.216
								c0.108-0.169,0.219-0.33,0.333-0.484c0.059-0.079,0.117-0.154,0.179-0.226c0.185-0.228,0.383-0.439,0.588-0.628
								c0.063-0.058,0.126-0.113,0.192-0.163c0.011-0.009,0.022-0.018,0.037-0.03c0.326-0.248,0.73-0.356,1.125-0.316
								c0.251,0.025,0.497,0.108,0.716,0.248C289.678,215.83,289.77,217.169,288.911,217.864z"/>
							<path style="opacity:0.2;fill:#606060;" d="M288.911,217.864c-0.402,0.325-0.832,0.705-1.248,1.133
								c-0.068,0.068-0.135,0.135-0.197,0.207c-0.091,0.092-0.178,0.188-0.263,0.288c-0.068,0.074-0.134,0.152-0.196,0.231
								c-0.15,0.181-0.298,0.366-0.432,0.559c-0.141,0.192-0.273,0.392-0.395,0.596c-0.061,0.102-0.122,0.204-0.177,0.311
								c-0.054,0.096-0.104,0.189-0.151,0.289c-0.008,0.013-0.013,0.026-0.021,0.039c-0.051,0.103-0.099,0.21-0.144,0.321
								c-0.008,0.016-0.017,0.035-0.022,0.052c-0.04,0.094-0.077,0.188-0.11,0.283c-0.037,0.098-0.071,0.196-0.101,0.294
								c-0.01,0.03-0.016,0.056-0.026,0.085c-0.031,0.105-0.058,0.207-0.082,0.313c-0.067,0.863-2.237,0.37-1.739-1.208
								c0,0,0.012-0.056,0.04-0.158c0.006-0.03,0.016-0.063,0.023-0.099c0.093-0.349,0.283-1.024,0.576-1.817
								c0.019-0.052,0.038-0.105,0.06-0.157c0.029-0.082,0.064-0.166,0.096-0.251c0.272-0.686,0.615-1.434,1.036-2.119
								c0.045-0.073,0.089-0.147,0.137-0.216c0.108-0.169,0.219-0.33,0.333-0.484c0.059-0.079,0.117-0.154,0.179-0.226
								c0.185-0.228,0.383-0.439,0.588-0.628c0.063-0.058,0.126-0.113,0.192-0.163c0.011-0.009,0.022-0.018,0.037-0.03
								c0.326-0.248,0.73-0.356,1.125-0.316c0.251,0.025,0.497,0.108,0.716,0.248C289.678,215.83,289.77,217.169,288.911,217.864z"
								/>
						</g>
					</g>
					<g>
						<path style="fill:#ED3902;" d="M300.016,240.726c-0.967,9.577-10.093,16.497-20.387,15.459
							c-1.068-0.108-2.109-0.297-3.112-0.565c-4.063-1.066-7.532-3.348-9.987-6.357c-2.774-3.403-4.244-7.739-3.786-12.295
							c0.964-9.574,10.09-16.497,20.38-15.458c5.354,0.542,9.965,3.125,13.02,6.829c1.071,1.289,1.948,2.713,2.603,4.233
							C299.827,235.087,300.303,237.864,300.016,240.726z"/>
						<path style="opacity:0.3;fill:#606060;" d="M300.016,240.726c-0.967,9.577-10.093,16.497-20.387,15.459
							c-1.068-0.108-2.109-0.297-3.112-0.565c-4.063-1.066-7.532-3.348-9.987-6.357c18.614,3.858,27-13.714,29.615-20.925
							c1.071,1.289,1.948,2.713,2.603,4.233C299.827,235.087,300.303,237.864,300.016,240.726z"/>
						<path style="opacity:0.6;fill:#FFFFF2;" d="M279.647,224.582c0.726,1.483-0.915,3.777-3.666,5.125
							c-2.751,1.348-5.57,1.238-6.296-0.245c-0.726-1.483,0.915-3.777,3.666-5.125C276.102,222.989,278.921,223.099,279.647,224.582
							z"/>
					</g>
				</g>
				<g>
					<path style="fill:#6B3915;" d="M251.236,225.395c0,0-2.705-2.677-5.342,0.391c-1.778,2.07,3.717,2.169,3.717,2.169
						L251.236,225.395z"/>
					<g>
						<path style="fill:#FE882D;" d="M251.079,259.133c-0.22,0.023-0.439,0.041-0.653,0.061c-1.434,0.101-2.776,0.08-4.029-0.064
							c-1.401-0.152-2.701-0.45-3.895-0.869c-3.849-1.34-6.617-3.915-8.444-6.913c-2.444-4.013-3.208-8.791-2.626-12.407
							c0.049-0.28,0.096-0.555,0.147-0.827c0.046-0.259,0.102-0.514,0.155-0.765c0.004-0.009,0.001-0.016,0.004-0.025
							c3.334-15.311,15.856-11.626,17.028-11.248c0.659-0.342,5.155-2.522,9.865-1.093c0.248,0.074,0.497,0.16,0.742,0.255
							c0.533,0.207,1.066,0.456,1.595,0.77c2.637,1.554,5.155,4.537,6.894,9.921c0.036,0.117,0.077,0.236,0.103,0.349
							c0.017,0.039,0.025,0.075,0.038,0.112C270.692,245.528,266.416,257.599,251.079,259.133z"/>
						<path style="opacity:0.3;fill:#606060;" d="M251.079,259.133c-0.22,0.023-0.439,0.041-0.653,0.061
							c-1.434,0.101-2.776,0.08-4.029-0.064c-1.401-0.152-2.701-0.45-3.895-0.869c-3.849-1.34-6.617-3.915-8.444-6.913
							c3.159,1.781,5.839,2.615,11.777,0.777c15.634-4.848,16.323-20.474,15.134-26.116c2.637,1.554,5.155,4.537,6.894,9.921
							c0.036,0.117,0.077,0.236,0.103,0.349c0.017,0.039,0.025,0.075,0.038,0.112C270.692,245.528,266.416,257.599,251.079,259.133z
							"/>
						<g style="opacity:0.3;">
							<path style="fill:#606060;" d="M253.771,231.276c-2.445,0.867-1.067,4.452,1.381,3.584
								C257.597,233.993,256.22,230.408,253.771,231.276z"/>
							<path style="fill:#606060;" d="M254.302,227.419c-1.128,0.4-0.493,2.055,0.637,1.654
								C256.068,228.673,255.433,227.018,254.302,227.419z"/>
							<path style="fill:#606060;" d="M251.643,229.302c-0.564,0.2-0.246,1.027,0.319,0.827
								C252.526,229.929,252.208,229.102,251.643,229.302z"/>
							<path style="fill:#606060;" d="M257.946,232.12c-0.564,0.2-0.246,1.027,0.319,0.827
								C258.829,232.747,258.511,231.919,257.946,232.12z"/>
							<path style="fill:#606060;" d="M258.431,228.383c-1.692,0.6-0.739,3.082,0.956,2.481
								C261.08,230.264,260.127,227.782,258.431,228.383z"/>
						</g>
						<path style="opacity:0.6;fill:#FFFFF2;" d="M242.248,234.928c-1.428,2.742-4.119,4.277-6.01,3.427
							c-1.891-0.85-2.267-3.762-0.839-6.505c1.428-2.743,4.119-4.277,6.01-3.427C243.3,229.274,243.676,232.186,242.248,234.928z"/>
					</g>
				</g>
				<g>
					<path style="fill:#6B3915;" d="M320.884,253.376l-0.189,1.408l-1.74,12.746l-3.306,24.33l-1.948,14.319l-2.895,21.284
						c-4.738,0.665-9.464,1.257-14.183,1.776c-2.516,0.286-5.029,0.551-7.538,0.796c-5.16,0.499-10.304,0.914-15.432,1.244
						c-2.497,0.16-4.989,0.309-7.477,0.426c-5.133,0.245-10.245,0.405-15.335,0.48c-2.486,0.032-4.966,0.053-7.445,0.032
						c-5.141-0.011-10.254-0.117-15.333-0.331c-2.495-0.107-4.988-0.224-7.467-0.384c-5.18-0.309-10.32-0.724-15.424-1.256
						c-2.522-0.244-5.041-0.531-7.544-0.838c-4.543-0.561-9.049-1.207-13.521-1.946l-2.913-21.284l-1.96-14.319l-3.327-24.33
						l-1.818-13.25l-0.123-0.903c0.391,0.087,0.782,0.173,1.174,0.252c5.451,1.183,10.931,2.238,16.438,3.148
						c2.823,0.473,5.652,0.903,8.488,1.29c5.757,0.818,11.535,1.48,17.329,1.992c2.793,0.247,5.583,0.46,8.375,0.637
						c5.72,0.363,11.448,0.585,17.18,0.665c2.778,0.035,5.557,0.035,8.335,0c5.732-0.062,11.46-0.266,17.181-0.629
						c2.793-0.168,5.584-0.372,8.37-0.628c5.796-0.495,11.569-1.138,17.328-1.939c2.83-0.396,5.66-0.817,8.483-1.29
						c5.582-0.91,11.135-1.966,16.659-3.157C319.838,253.611,320.355,253.489,320.884,253.376z"/>
					<path style="opacity:0.2;fill:#606060;" d="M294.166,258.162l-5.08,71.872c2.509-0.244,5.022-0.509,7.538-0.796l6.026-72.367
						C299.826,257.346,296.995,257.767,294.166,258.162z M268.467,260.73l-2.291,70.975c2.487-0.117,4.98-0.266,7.477-0.426
						l3.184-71.177C274.051,260.358,271.26,260.561,268.467,260.73z M242.951,261.359l0.445,70.858c2.48,0.022,4.96,0,7.445-0.032
						l0.445-70.826C248.508,261.394,245.729,261.394,242.951,261.359z M225.771,260.694c-2.793-0.177-5.583-0.389-8.375-0.637
						l3.2,71.445c2.479,0.16,4.973,0.277,7.467,0.384L225.771,260.694z M200.066,258.065c-2.836-0.387-5.665-0.816-8.488-1.29
						l6.049,72.633c2.503,0.308,5.021,0.594,7.544,0.838L200.066,258.065z"/>
					<path style="opacity:0.2;fill:#606060;" d="M315.649,291.86l-1.948,14.319c-43.914,6.083-88.588,6.093-132.507,0l-1.96-14.319
						C224.428,298.384,270.461,298.384,315.649,291.86z"/>
					<path style="opacity:0.2;fill:#606060;" d="M320.696,254.785l-1.738,12.746c-47.183,7.792-95.372,7.838-143.053,0l-1.817-13.25
						c0.333-0.278,0.688-0.504,1.051-0.652c47.712,10.357,96.452,10.383,144.169,0.087
						C319.799,253.949,320.266,254.314,320.696,254.785z"/>
					<path style="fill:#885929;" d="M321.314,292.936c0.292,1.876,0.082,3.657-0.498,5.018c-0.577,1.357-1.529,2.296-2.711,2.471
						c-46.815,6.933-94.552,6.933-141.373,0c-2.361-0.349-3.8-3.728-3.215-7.489c0.187-1.209,0.561-2.308,1.057-3.23
						c0.269-0.5,0.575-0.959,0.906-1.346c0.933-1.089,2.084-1.684,3.233-1.517c45.511,6.618,91.895,6.618,137.401,0
						c1.549-0.225,3.112,0.937,4.141,2.862C320.75,290.628,321.125,291.726,321.314,292.936z"/>
					<path style="fill:#885929;" d="M320.696,262.894c-49.678,7.001-97.051,7.06-146.729,0.059
						c-2.508-0.353-5.873-4.075-5.217-7.928l0,0c0.649-3.813,3.136-6.584,5.565-6.249c48.214,6.663,97.394,6.663,145.608,0
						c2.43-0.335,4.916,2.435,5.565,6.248l0,0C326.144,258.878,323.203,262.54,320.696,262.894z"/>
				</g>
				<g>
					<path style="fill:#FCBD15;" d="M324.913,305.157c-0.848,0.89-2.711,1.686-4.863,2.173c-2.607,0.579-5.628,0.714-7.791,0.01
						c-0.445-0.145-6.756-2.276-9.798-3.745c-3.031-1.469-2.018-4.149-2.018-4.149c-3.218-0.176-6.446-1.004-6.901-3.125
						c-0.466-2.111,1.997-2.235,1.997-2.235c-2.018-0.362-2.835-2.38-2.193-4.314c0.642-1.935,6.642-1.552,6.642-1.552
						s-0.103-1.924,2.018-3.031c0.652-0.341,1.614-0.59,2.783-0.797c0.01,0,0.01,0,0.021,0c1.335-0.238,2.918-0.445,4.594-0.704
						c0,0,0.031,0,0.093-0.01c1.583-0.248,3.249-0.548,4.842-0.973c4.78-1.293,4.925-2.39,4.925-2.39
						c0.466-1.904-2.928-3.228-2.928-3.228s0.704-3.901,1.273-7.015v-0.01c0.372-2.038,0.673-3.735,0.693-3.766
						c0.703,9.219,9.043,12.126,10.802,17.082C333.314,294.717,327.21,302.736,324.913,305.157z"/>
					<g>
						<path style="opacity:0.3;fill:#606060;" d="M300.485,288.385c0,0,9.293,1.86,13.71,0.93c4.417-0.93,8.546-2.77,8.546-2.77
							s-4.682,3.68-8.362,3.865C310.698,290.594,300.485,288.385,300.485,288.385z"/>
						<path style="opacity:0.3;fill:#606060;" d="M319.264,280.315c0.466-1.904-2.928-3.228-2.928-3.228s0.704-3.901,1.273-7.015
							c-0.01,0.279-0.166,4.615,1.583,5.991C321.002,277.491,319.264,280.315,319.264,280.315z"/>
						<path style="opacity:0.3;fill:#606060;" d="M295.547,294.09c0,0,12.023,1.534,16.378,1.165
							c4.355-0.368,9.833-1.365,9.833-1.365s-4.373,2.346-9.833,2.285C306.466,296.115,295.547,294.09,295.547,294.09z"/>
						<path style="opacity:0.3;fill:#606060;" d="M300.445,299.449c-0.195,0.275,0.5-0.963,2.954-0.247
							c2.454,0.716,7.852,2.434,9.324,2.434c1.472,0,4.171-0.552,4.171-0.552s-2.515,0.123-4.601-0.491
							S301.907,297.385,300.445,299.449z"/>
					</g>
				</g>
				<g>
					<path style="fill:#FCBD15;" d="M169.933,305.157c0.848,0.89,2.711,1.686,4.863,2.173c2.607,0.579,5.628,0.714,7.791,0.01
						c0.445-0.145,6.756-2.276,9.798-3.745c3.031-1.469,2.018-4.149,2.018-4.149c3.218-0.176,6.446-1.004,6.901-3.125
						c0.466-2.111-1.997-2.235-1.997-2.235c2.018-0.362,2.835-2.38,2.194-4.314c-0.642-1.935-6.642-1.552-6.642-1.552
						s0.103-1.924-2.018-3.031c-0.652-0.341-1.614-0.59-2.783-0.797c-0.01,0-0.01,0-0.021,0c-1.335-0.238-2.918-0.445-4.594-0.704
						c0,0-0.031,0-0.093-0.01c-1.583-0.248-3.249-0.548-4.842-0.973c-4.78-1.293-4.925-2.39-4.925-2.39
						c-0.466-1.904,2.928-3.228,2.928-3.228s-0.704-3.901-1.273-7.015v-0.01c-0.373-2.038-0.673-3.735-0.693-3.766
						c-0.704,9.219-9.043,12.126-10.802,17.082C161.532,294.717,167.636,302.736,169.933,305.157z"/>
					<g>
						<path style="opacity:0.3;fill:#606060;" d="M194.361,288.385c0,0-9.293,1.86-13.71,0.93c-4.417-0.93-8.546-2.77-8.546-2.77
							s4.682,3.68,8.362,3.865C184.148,290.594,194.361,288.385,194.361,288.385z"/>
						<path style="opacity:0.3;fill:#606060;" d="M175.582,280.315c-0.466-1.904,2.928-3.228,2.928-3.228s-0.704-3.901-1.273-7.015
							c0.01,0.279,0.165,4.615-1.583,5.991C173.844,277.491,175.582,280.315,175.582,280.315z"/>
						<path style="opacity:0.3;fill:#606060;" d="M199.299,294.09c0,0-12.023,1.534-16.378,1.165s-9.833-1.365-9.833-1.365
							s4.373,2.346,9.833,2.285C188.38,296.115,199.299,294.09,199.299,294.09z"/>
						<path style="opacity:0.3;fill:#606060;" d="M194.401,299.449c0.195,0.275-0.5-0.963-2.954-0.247
							c-2.454,0.716-7.852,2.434-9.324,2.434s-4.171-0.552-4.171-0.552s2.515,0.123,4.601-0.491
							C184.638,299.979,192.939,297.385,194.401,299.449z"/>
					</g>
				</g>
			</g>
		</g>
		<g>
			<g>
				<path style="fill:#E5B7AC;" d="M250.65,169.657c-23.756,0.064-20.082-28.656-20.082-28.656s3.292-0.969,4.249-8.076
					c0.243-1.71,0.281-3.662,0.013-5.92h31.233c0,0-0.025,0.268-0.064,0.715c-0.013,0.255-0.038,0.574-0.038,0.944
					c0,0.663,0.025,1.301,0.064,1.914c0.064,1.212,0.191,2.309,0.357,3.304c0.829,4.823,2.04,6.17,4.205,7.338
					C270.587,141.22,274.419,169.593,250.65,169.657z"/>
				<path style="opacity:0.5;fill:#E5B7AC;" d="M266.382,133.882c-1.927,9.071-9.237,14.443-15.591,14.455
					c-11.534,0-15.961-15.399-15.961-15.399l-0.013-0.013c0.243-1.71,0.281-3.662,0.013-5.92h31.233c0,0-0.025,0.268-0.064,0.715
					c-0.013,0.255-0.038,0.574-0.038,0.944c-0.026,0.587-0.013,1.225,0.064,1.914C266.088,131.79,266.216,132.887,266.382,133.882z"
					/>
			</g>
			<g>
				
					<ellipse transform="matrix(0.0187 -0.9998 0.9998 0.0187 157.8732 341.0479)" style="fill:#885929;" cx="252.681" cy="90.097" rx="19.429" ry="71.139"/>
				<path style="opacity:0.2;fill:#606060;" d="M323.806,91.403c-0.155,10.737-32.126,18.844-71.411,18.116
					c-39.285-0.715-70.997-9.996-70.842-20.733c0.103-7.277,14.847-13.354,36.595-16.29c10.305-1.379,22.183-2.055,34.816-1.826
					c12.385,0.23,24.024,1.315,34.143,3.026C309.083,77.398,323.909,84.062,323.806,91.403z"/>
			</g>
			<g>
				<path style="fill:#E5B7AC;" d="M279.172,95.402c-0.772,22.704-13.239,40.787-28.084,41.022
					c-0.313,0.025-0.624,0.028-0.934,0.007c-12.645-0.442-22.867-13.722-25.54-31.453c-0.572-3.663-0.82-7.532-0.682-11.513
					c0.779-23.182,13.263-33.33,28.505-32.809C267.699,61.201,279.952,72.22,279.172,95.402z"/>
				<path style="fill:#2E3442;" d="M273.79,60.637c0,0-10.424-10.422-25.035-9.831c-9.379,0.379-23.212,13.319-23.212,13.319
					c-5.877,7.016-5.124,19.111-1.649,33.292l2.719,4.726l2.15-29.779c0,0,24.201,0.039,42.574,0.591
					c8.514,0.256,5.246,18.632,4.557,31.185l3.313-4.667C279.207,99.474,295.366,58.966,273.79,60.637z"/>
				<g>
					<g>
						<g>
							<path style="fill:#E5B7AC;" d="M234.507,103.94c-0.081,0.469-1.273,0.644-2.661,0.391c-1.389-0.253-2.449-0.838-2.368-1.307
								c0.081-0.469,1.273-0.644,2.661-0.391C233.528,102.886,234.588,103.471,234.507,103.94z"/>
							<path style="fill:#E5B7AC;" d="M234.652,106.776c-0.049-0.474-1.227-0.732-2.628-0.577c-1.402,0.154-2.498,0.664-2.448,1.137
								c0.049,0.474,1.226,0.732,2.628,0.578C233.606,107.759,234.702,107.249,234.652,106.776z"/>
						</g>
						<g>
							<path style="fill:#E5B7AC;" d="M268.945,108.158c0.081-0.468,1.272-0.644,2.66-0.391c1.388,0.253,2.448,0.838,2.367,1.307
								c-0.081,0.469-1.272,0.644-2.661,0.391C269.923,109.212,268.864,108.627,268.945,108.158z"/>
							<path style="fill:#E5B7AC;" d="M268.799,105.322c0.05,0.474,1.226,0.732,2.629,0.578c1.402-0.154,2.498-0.664,2.448-1.137
								c-0.05-0.474-1.226-0.732-2.628-0.577C269.846,104.34,268.749,104.849,268.799,105.322z"/>
						</g>
					</g>
					<g>
						<g>
							<path style="fill:#E5B7AC;" d="M251.501,112.847c0.058,0.007,0.116,0.01,0.175,0.013c0.725,0.024,2.486-0.399,3.178-4.799
								c1.132-7.203,0.454-11.345,0.424-11.517c-0.044-0.267-0.293-0.449-0.555-0.4c-0.261,0.046-0.436,0.301-0.392,0.569
								c0.008,0.041,0.678,4.17-0.427,11.192c-0.465,2.965-1.44,3.994-2.198,3.971c-1.111-0.021-2.546-2.152-2.866-5.508
								c-0.027-0.27-0.264-0.468-0.525-0.443c-0.264,0.026-0.458,0.268-0.432,0.539C248.219,109.996,249.727,112.63,251.501,112.847
								z"/>
							<g>
								<g>
									<path style="fill:#FFFFF2;" d="M261.474,117.517c0,0-1.671,2.728-4.905,4.369c-0.297,0.156-0.631,0.31-0.963,0.441
										c-1.389,0.553-3.03,0.889-4.925,0.758c-2.236-0.154-4.05-0.904-5.47-1.852c-0.291-0.197-0.563-0.393-0.815-0.599
										c-2.547-2.016-3.649-4.546-3.649-4.546S249.828,120.864,261.474,117.517z"/>
								</g>
							</g>
							<g>
								<path style="fill:#2E3442;" d="M245.713,99.474c0,0-4.617-8.771-10.706-0.695C238.609,96.619,241.4,96.653,245.713,99.474z"
									/>
								<path style="fill:#2E3442;" d="M269.315,101.53c0,0-4.617-8.771-10.706-0.695C262.211,98.675,265.001,98.709,269.315,101.53
									z"/>
							</g>
						</g>
						<g>
							<g>
								<path style="fill:#2E3442;" d="M266.877,91.235c-1.461-0.785-3.249-0.841-5.312-0.168c-0.719,0.236-1.487-0.173-1.716-0.911
									c-0.228-0.737,0.17-1.526,0.889-1.76c2.798-0.912,5.3-0.786,7.438,0.372c3.363,1.826,4.334,7.245,3.611,7.467
									C271.641,96.28,269.199,92.482,266.877,91.235z"/>
							</g>
							<g>
								<path style="fill:#2E3442;" d="M232.541,94.1c-0.707-0.271,0.624-5.61,4.101-7.195c2.207-1.007,4.709-0.955,7.445,0.151
									c0.702,0.284,1.046,1.099,0.769,1.818c-0.278,0.721-1.073,1.074-1.773,0.788c-2.024-0.821-3.819-0.885-5.33-0.197
									C235.349,90.561,232.684,94.155,232.541,94.1z"/>
							</g>
						</g>
					</g>
				</g>
				<g>
					<path style="fill:#E5B7AC;" d="M274.873,104.818c0,0,5.571-11.784,11.623-8.023c6.053,3.761-3.382,23.302-12.706,17.691
						L274.873,104.818z"/>
					<path style="fill:#E5B7AC;" d="M283.865,102.201c-4.557-0.633-7.747,4.187-7.881,4.395c-0.137,0.21-0.115,0.51,0.048,0.672
						c0.057,0.057,0.124,0.089,0.194,0.097c0.127,0.016,0.26-0.049,0.348-0.185c0.019-0.029,1.212-1.828,3.108-3.027
						c1.429,1.479,0.248,4.713,0.235,4.747c-0.091,0.243-0.011,0.525,0.18,0.629c0.037,0.021,0.075,0.033,0.113,0.038
						c0.162,0.02,0.326-0.091,0.4-0.287c0.06-0.158,1.302-3.561-0.155-5.553c0.94-0.455,2.009-0.73,3.172-0.589
						c0.039,0.005,0.078,0.011,0.117,0.016c0.183,0.064,0.407-0.159,0.441-0.422C284.219,102.469,284.076,102.231,283.865,102.201z"
						/>
				</g>
				<g>
					<path style="fill:#E5B7AC;" d="M226.496,101.335c0,0-5.953-11.586-11.879-7.619c-5.926,3.967,4.142,23.173,13.277,17.244
						L226.496,101.335z"/>
					<path style="fill:#E5B7AC;" d="M217.423,99.028c4.533-0.789,7.88,3.919,8.021,4.121c0.144,0.205,0.132,0.506-0.026,0.673
						c-0.055,0.059-0.121,0.093-0.19,0.104c-0.126,0.02-0.261-0.04-0.354-0.173c-0.02-0.028-1.271-1.785-3.206-2.918
						c-1.38,1.527-0.093,4.719-0.079,4.752c0.099,0.24,0.028,0.525-0.16,0.635c-0.036,0.022-0.074,0.036-0.112,0.042
						c-0.161,0.025-0.329-0.08-0.409-0.273c-0.066-0.156-1.418-3.514-0.027-5.555c-0.955-0.423-2.032-0.661-3.189-0.48
						c-0.039,0.006-0.078,0.013-0.117,0.02c-0.181,0.07-0.412-0.145-0.454-0.406C217.079,99.309,217.214,99.066,217.423,99.028z"/>
				</g>
			</g>
			<g>
				<path style="fill:#885929;" d="M287.552,78.771H287.5c0.073,7.232-4.521,5.504-4.521,5.504
					c-32.395-10.626-61.261-1.366-61.261-1.366c-2.876,0.165-3.725-2.463-3.818-5.256c-0.145,0.01-0.3,0.031-0.445,0.052l0.642-3.58
					c0.021-0.124,0.031-0.248,0.052-0.362c0.01,0,0.01,0,0.021,0l0.114-0.642l0.404-2.256l0.724-3.973
					c3.042-16.699,17.506-28.804,34.474-28.215c8.474,0.279,16.13,3.694,21.914,9.146c5.773,5.432,9.674,12.912,10.646,21.345
					l0.31,2.659l0.269,2.369l0.062,0.538c0.01,0,0.01,0,0.021,0c0.228,1.345,0.341,2.493,0.383,3.497L287.552,78.771z"/>
				<path style="opacity:0.2;fill:#606060;" d="M287.552,78.771H287.5c0.073,7.232-4.521,5.504-4.521,5.504
					c-32.395-10.626-61.261-1.366-61.261-1.366c-2.876,0.165-3.725-2.463-3.818-5.256c-0.145,0.01-0.3,0.031-0.445,0.052l0.642-3.58
					c0.021-0.124,0.031-0.248,0.052-0.362c0.01,0,0.01,0,0.021,0l0.114-0.642l0.94-5.201c22.593-5.773,44.436-5.114,67.222,1.249
					l0.579,5.028l0.062,0.538c0.01,0,0.01,0,0.021,0c0.228,1.345,0.341,2.493,0.383,3.497L287.552,78.771z"/>
				<path style="fill:#FCBD15;" d="M287.542,78.674c-10.222-1.759-22.007-2.866-34.578-3.094
					c-12.912-0.248-25.028,0.476-35.478,1.924l0.61-3.383c0.021-0.124,0.031-0.248,0.052-0.362c0.01,0,0.01,0,0.021,0l0.114-0.641
					l0.114-0.631l0.828-4.563c22.596-5.773,44.438-5.122,67.221,1.242l0.517,4.501l0.062,0.528l0.062,0.538c0.01,0,0.01,0,0.021,0
					c0.228,1.345,0.341,2.493,0.383,3.497L287.542,78.674z"/>
				<g>
					<path style="fill:#885929;" d="M323.806,91.409c-0.01,0.801-0.217,1.59-0.579,2.367c-2.876-6.278-16.513-11.825-35.674-15.098
						c-10.222-1.764-22.017-2.866-34.588-3.098c-12.923-0.244-25.049,0.476-35.509,1.926c-18.955,2.634-32.457,7.682-35.322,13.821
						c-0.383-0.835-0.59-1.683-0.579-2.541c0.103-7.288,14.909-13.369,36.73-16.293c10.274-1.381,22.1-2.054,34.681-1.822
						c12.354,0.232,23.962,1.3,34.06,3.006C309.042,77.367,323.909,84.051,323.806,91.409z"/>
					<path style="opacity:0.5;fill:#FFFFF2;" d="M323.806,91.41c-0.01,0.797-0.217,1.583-0.579,2.369
						c-2.876-6.28-16.513-11.826-35.674-15.106h-0.01c-10.222-1.759-22.007-2.866-34.578-3.094
						c-12.912-0.248-25.028,0.476-35.478,1.924h-0.031c-18.955,2.638-32.457,7.687-35.322,13.823
						c-0.383-0.838-0.59-1.686-0.579-2.545c0.103-7.284,14.909-13.368,36.73-16.285c0.041,0,0.072-0.01,0.114-0.01
						c10.243-1.376,22.027-2.049,34.567-1.811c12.333,0.228,23.911,1.293,33.998,2.99c0.021,0,0.041,0.01,0.062,0.01
						C309.042,77.37,323.909,84.054,323.806,91.41z"/>
				</g>
			</g>
		</g>
	</g>
</g>
</svg>
